<svg version="1.1" xmlns="http://www.w3.org/2000/svg" xmlns:xlink="http://www.w3.org/1999/xlink"
    width="612" height="748">
    <defs />
    <g>
        <g transform="translate(-518,2) scale(1,1)">
            <rect fill="#ffffff" stroke="none" x="528" y="8" width="391" height="21" />
        </g>
        <g transform="translate(-518,2) scale(1,1)">
            <path fill="none" stroke="#000000" d="M 528 8 L 919 8 L 919 29 L 528 29 L 528 8 Z Z"
                stroke-miterlimit="10" stroke-width="2" />
        </g>
        <g transform="translate(-518,2) scale(1,1)">
            <path fill="none" stroke="#000000" d="M 528 736 L 528 8 L 919 8 L 919 736"
                stroke-miterlimit="10" stroke-width="2" />
        </g>
        <g transform="translate(-518,2) scale(1,1)">
            <g>
                <path fill="none" stroke="none" />
                <text fill="#000000" stroke="none" font-family="Arial" font-size="13px"
                    font-style="normal" font-weight="normal" text-decoration="none" x="704.35546875"
                    y="22">User 1</text>
            </g>
        </g>
        <g transform="translate(-518,2) scale(1,1)">
            <rect fill="#ffffff" stroke="none" x="920" y="8" width="200" height="21" />
        </g>
        <g transform="translate(-518,2) scale(1,1)">
            <path fill="none" stroke="#000000" d="M 920 8 L 1120 8 L 1120 29 L 920 29 L 920 8 Z Z"
                stroke-miterlimit="10" stroke-width="2" />
        </g>
        <g transform="translate(-518,2) scale(1,1)">
            <path fill="none" stroke="#000000" d="M 920 736 L 920 8 L 1120 8 L 1120 736"
                stroke-miterlimit="10" stroke-width="2" />
        </g>
        <g transform="translate(-518,2) scale(1,1)">
            <g>
                <path fill="none" stroke="none" />
                <text fill="#000000" stroke="none" font-family="Arial" font-size="13px"
                    font-style="normal" font-weight="normal" text-decoration="none"
                    x="1000.85546875" y="22">Server</text>
            </g>
        </g>
        <g transform="translate(-518,2) scale(1,1)">
            <path fill="#C0C0C0" stroke="none"
                d="M 713 183 L 789 183 Q 799 183 799 193 L 799 213 Q 799 223 789 223 L 713 223 Q 703 223 703 213 L 703 193 Q 703 183 713 183 Z"
                opacity="0.2" />
        </g>
        <g transform="translate(-518,2) scale(1,1)">
            <path fill="#ffffff" stroke="none"
                d="M 706 176 L 782 176 Q 792 176 792 186 L 792 206 Q 792 216 782 216 L 706 216 Q 696 216 696 206 L 696 186 Q 696 176 706 176 Z" />
        </g>
        <g transform="translate(-518,2) scale(1,1)">
            <path fill="none" stroke="#000000"
                d="M 706 176 L 782 176 Q 792 176 792 186 L 792 206 Q 792 216 782 216 L 706 216 Q 696 216 696 206 L 696 186 Q 696 176 706 176 Z"
                stroke-miterlimit="10" />
        </g>
        <g transform="translate(-518,2) scale(1,1)">
            <g>
                <path fill="none" stroke="none" />
                <text fill="#000000" stroke="none" font-family="Arial" font-size="13px"
                    font-style="normal" font-weight="bold" text-decoration="none"
                    x="700.66455078125" y="194">Authenticated</text>
            </g>
        </g>
        <g transform="translate(-518,2) scale(1,1)">
            <path fill="#C0C0C0" stroke="none"
                d="M 815 56.5 C 815 51.2532944 819.2532944 47 824.5 47 C 829.7467056 47 834 51.2532944 834 56.5 C 834 61.7467056 829.7467056 66 824.5 66 C 819.2532944 66 815 61.7467056 815 56.5 Z"
                opacity="0.2" />
        </g>
        <g transform="translate(-518,2) scale(1,1)">
            <path fill="#000000" stroke="none"
                d="M 808 49.5 C 808 44.2532944 812.2532944 40 817.5 40 C 822.7467056 40 827 44.2532944 827 49.5 C 827 54.7467056 822.7467056 59 817.5 59 C 812.2532944 59 808 54.7467056 808 49.5 Z" />
        </g>
        <g transform="translate(-518,2) scale(1,1)">
            <path fill="#C0C0C0" stroke="none"
                d="M 809 95 L 848 95 Q 858 95 858 105 L 858 125 Q 858 135 848 135 L 809 135 Q 799 135 799 125 L 799 105 Q 799 95 809 95 Z"
                opacity="0.2" />
        </g>
        <g transform="translate(-518,2) scale(1,1)">
            <path fill="#ffffff" stroke="none"
                d="M 802 88 L 841 88 Q 851 88 851 98 L 851 118 Q 851 128 841 128 L 802 128 Q 792 128 792 118 L 792 98 Q 792 88 802 88 Z" />
        </g>
        <g transform="translate(-518,2) scale(1,1)">
            <path fill="none" stroke="#000000"
                d="M 802 88 L 841 88 Q 851 88 851 98 L 851 118 Q 851 128 841 128 L 802 128 Q 792 128 792 118 L 792 98 Q 792 88 802 88 Z"
                stroke-miterlimit="10" />
        </g>
        <g transform="translate(-518,2) scale(1,1)">
            <g>
                <path fill="none" stroke="none" />
                <text fill="#000000" stroke="none" font-family="Arial" font-size="13px"
                    font-style="normal" font-weight="bold" text-decoration="none"
                    x="803.812255859375" y="106">Login</text>
            </g>
        </g>
        <g transform="translate(-518,2) scale(1,1)">
            <path fill="#C0C0C0" stroke="none"
                d="M 985 95 L 1052.72998046875 95 Q 1062.72998046875 95 1062.72998046875 105 L 1062.72998046875 125 Q 1062.72998046875 135 1052.72998046875 135 L 985 135 Q 975 135 975 125 L 975 105 Q 975 95 985 95 Z"
                opacity="0.2" />
        </g>
        <g transform="translate(-518,2) scale(1,1)">
            <path fill="#ffffff" stroke="none"
                d="M 978 88 L 1045.72998046875 88 Q 1055.72998046875 88 1055.72998046875 98 L 1055.72998046875 118 Q 1055.72998046875 128 1045.72998046875 128 L 978 128 Q 968 128 968 118 L 968 98 Q 968 88 978 88 Z" />
        </g>
        <g transform="translate(-518,2) scale(1,1)">
            <path fill="none" stroke="#000000"
                d="M 978 88 L 1045.72998046875 88 Q 1055.72998046875 88 1055.72998046875 98 L 1055.72998046875 118 Q 1055.72998046875 128 1045.72998046875 128 L 978 128 Q 968 128 968 118 L 968 98 Q 968 88 978 88 Z"
                stroke-miterlimit="10" />
        </g>
        <g transform="translate(-518,2) scale(1,1)">
            <g>
                <path fill="none" stroke="none" />
                <text fill="#000000" stroke="none" font-family="Arial" font-size="13px"
                    font-style="normal" font-weight="bold" text-decoration="none" x="972.5" y="106">
                    Authenticate</text>
            </g>
        </g>
        <g transform="translate(-518,2) scale(1,1)">
            <path fill="none" stroke="#000000" d="M 851 108 L 968 108" stroke-miterlimit="10" />
        </g>
        <g transform="translate(-518,2) scale(1,1)">
            <path fill="none" stroke="#000000"
                d="M 957.8373251423759 112.20951775601598 L 968 108 L 957.8373251423758 103.79048224398402"
                stroke-miterlimit="10" />
        </g>
        <g transform="translate(-518,2) scale(1,1)">
            <path fill="#C0C0C0" stroke="none"
                d="M 1007 176.5 L 1018.5 167 L 1029 176.5 L 1018.5 185 L 1007 176.5" opacity="0.2" />
        </g>
        <g transform="translate(-518,2) scale(1,1)">
            <path fill="#ffffff" stroke="none"
                d="M 1000 169 L 1011 160 L 1022 169 L 1011 178 L 1000 169" />
        </g>
        <g transform="translate(-518,2) scale(1,1)">
            <path fill="none" stroke="#000000"
                d="M 1000 169 L 1011 160 L 1022 169 L 1011 178 L 1000 169 L 1000 169"
                stroke-miterlimit="10" />
        </g>
        <g transform="translate(-518,2) scale(1,1)">
            <path fill="none" stroke="#000000" d="M 1011 128 L 1011 160" stroke-miterlimit="10" />
        </g>
        <g transform="translate(-518,2) scale(1,1)">
            <path fill="none" stroke="#000000"
                d="M 1006.790482243984 149.83732514237585 L 1011 160 L 1015.209517756016 149.83732514237585"
                stroke-miterlimit="10" />
        </g>
        <g transform="translate(-518,2) scale(1,1)">
            <g>
                <path fill="none" stroke="none" />
                <text fill="#000000" stroke="none" font-family="Arial" font-size="13px"
                    font-style="normal" font-weight="normal" text-decoration="none" x="932.5"
                    y="146">if credentials are correct</text>
            </g>
        </g>
        <g transform="translate(-518,2) scale(1,1)">
            <path fill="none" stroke="#000000"
                d="M 1000 169 L 829 169 M 829 169 A 8 8 0 0 1 821 161 L 821 128"
                stroke-miterlimit="10" />
        </g>
        <g transform="translate(-518,2) scale(1,1)">
            <path fill="none" stroke="#000000"
                d="M 825.209517756016 138.16267485762415 L 821 128 L 816.790482243984 138.16267485762415"
                stroke-miterlimit="10" />
        </g>
        <g transform="translate(-518,2) scale(1,1)">
            <g>
                <path fill="none" stroke="none" />
                <text fill="#000000" stroke="none" font-family="Arial" font-size="13px"
                    font-style="normal" font-weight="normal" text-decoration="none" x="742.5"
                    y="147">if incorrect</text>
            </g>
        </g>
        <g transform="translate(-518,2) scale(1,1)">
            <path fill="none" stroke="#000000"
                d="M 1008 178 L 1008 200 M 1008 200 A 8 8 0 0 1 1000 208 L 792 208"
                stroke-miterlimit="10" />
        </g>
        <g transform="translate(-518,2) scale(1,1)">
            <path fill="none" stroke="#000000"
                d="M 802.1626748576241 203.790482243984 L 792 208 L 802.1626748576241 212.209517756016"
                stroke-miterlimit="10" />
        </g>
        <g transform="translate(-518,2) scale(1,1)">
            <path fill="none" stroke="#000000" d="M 735 216 L 735 240" stroke-miterlimit="10" />
        </g>
        <g transform="translate(-518,2) scale(1,1)">
            <path fill="none" stroke="#000000"
                d="M 730.790482243984 229.83732514237585 L 735 240 L 739.209517756016 229.83732514237585"
                stroke-miterlimit="10" />
        </g>
        <g transform="translate(-518,2) scale(1,1)">
            <path fill="#C0C0C0" stroke="none"
                d="M 777 279 L 816 279 Q 826 279 826 289 L 826 309 Q 826 319 816 319 L 777 319 Q 767 319 767 309 L 767 289 Q 767 279 777 279 Z"
                opacity="0.2" />
        </g>
        <g transform="translate(-518,2) scale(1,1)">
            <path fill="#ffffff" stroke="none"
                d="M 770 272 L 809 272 Q 819 272 819 282 L 819 302 Q 819 312 809 312 L 770 312 Q 760 312 760 302 L 760 282 Q 760 272 770 272 Z" />
        </g>
        <g transform="translate(-518,2) scale(1,1)">
            <path fill="none" stroke="#000000"
                d="M 770 272 L 809 272 Q 819 272 819 282 L 819 302 Q 819 312 809 312 L 770 312 Q 760 312 760 302 L 760 282 Q 760 272 770 272 Z"
                stroke-miterlimit="10" />
        </g>
        <g transform="translate(-518,2) scale(1,1)">
            <g>
                <path fill="none" stroke="none" />
                <text fill="#000000" stroke="none" font-family="Arial" font-size="13px"
                    font-style="normal" font-weight="bold" text-decoration="none"
                    x="767.819580078125" y="290">Search</text>
            </g>
        </g>
        <g transform="translate(-518,2) scale(1,1)">
            <path fill="#C0C0C0" stroke="none"
                d="M 625 279 L 664 279 Q 674 279 674 289 L 674 309 Q 674 319 664 319 L 625 319 Q 615 319 615 309 L 615 289 Q 615 279 625 279 Z"
                opacity="0.2" />
        </g>
        <g transform="translate(-518,2) scale(1,1)">
            <path fill="#ffffff" stroke="none"
                d="M 618 272 L 657 272 Q 667 272 667 282 L 667 302 Q 667 312 657 312 L 618 312 Q 608 312 608 302 L 608 282 Q 608 272 618 272 Z" />
        </g>
        <g transform="translate(-518,2) scale(1,1)">
            <path fill="none" stroke="#000000"
                d="M 618 272 L 657 272 Q 667 272 667 282 L 667 302 Q 667 312 657 312 L 618 312 Q 608 312 608 302 L 608 282 Q 608 272 618 272 Z"
                stroke-miterlimit="10" />
        </g>
        <g transform="translate(-518,2) scale(1,1)">
            <g>
                <path fill="none" stroke="none" />
                <text fill="#000000" stroke="none" font-family="Arial" font-size="13px"
                    font-style="normal" font-weight="bold" text-decoration="none"
                    x="617.273193359375" y="290">Profile</text>
            </g>
        </g>
        <g transform="translate(-518,2) scale(1,1)">
            <path fill="none" stroke="#000000" d="M 792 245 L 792 272" stroke-miterlimit="10" />
        </g>
        <g transform="translate(-518,2) scale(1,1)">
            <path fill="none" stroke="#000000"
                d="M 787.790482243984 261.83732514237585 L 792 272 L 796.209517756016 261.83732514237585"
                stroke-miterlimit="10" />
        </g>
        <g transform="translate(-518,2) scale(1,1)">
            <path fill="#C0C0C0" stroke="none"
                d="M 705 279 L 744 279 Q 754 279 754 289 L 754 309 Q 754 319 744 319 L 705 319 Q 695 319 695 309 L 695 289 Q 695 279 705 279 Z"
                opacity="0.2" />
        </g>
        <g transform="translate(-518,2) scale(1,1)">
            <path fill="#ffffff" stroke="none"
                d="M 698 272 L 737 272 Q 747 272 747 282 L 747 302 Q 747 312 737 312 L 698 312 Q 688 312 688 302 L 688 282 Q 688 272 698 272 Z" />
        </g>
        <g transform="translate(-518,2) scale(1,1)">
            <path fill="none" stroke="#000000"
                d="M 698 272 L 737 272 Q 747 272 747 282 L 747 302 Q 747 312 737 312 L 698 312 Q 688 312 688 302 L 688 282 Q 688 272 698 272 Z"
                stroke-miterlimit="10" />
        </g>
        <g transform="translate(-518,2) scale(1,1)">
            <g>
                <path fill="none" stroke="none" />
                <text fill="#000000" stroke="none" font-family="Arial" font-size="13px"
                    font-style="normal" font-weight="bold" text-decoration="none"
                    x="699.44091796875" y="290">Chats</text>
            </g>
        </g>
        <g transform="translate(-518,2) scale(1,1)">
            <path fill="#C0C0C0" stroke="none"
                d="M 855 296.5 L 866.5 287 L 877 296.5 L 866.5 305 L 855 296.5" opacity="0.2" />
        </g>
        <g transform="translate(-518,2) scale(1,1)">
            <path fill="#ffffff" stroke="none" d="M 848 289 L 859 280 L 870 289 L 859 298 L 848 289" />
        </g>
        <g transform="translate(-518,2) scale(1,1)">
            <path fill="none" stroke="#000000"
                d="M 848 289 L 859 280 L 870 289 L 859 298 L 848 289 L 848 289"
                stroke-miterlimit="10" />
        </g>
        <g transform="translate(-518,2) scale(1,1)">
            <path fill="none" stroke="#000000" d="M 819 289 L 848 289" stroke-miterlimit="10" />
        </g>
        <g transform="translate(-518,2) scale(1,1)">
            <path fill="none" stroke="#000000"
                d="M 837.8373251423759 293.209517756016 L 848 289 L 837.8373251423758 284.790482243984"
                stroke-miterlimit="10" />
        </g>
        <g transform="translate(-518,2) scale(1,1)">
            <g>
                <path fill="none" stroke="none" />
                <text fill="#000000" stroke="none" font-family="Arial" font-size="13px"
                    font-style="normal" font-weight="normal" text-decoration="none" x="774.5"
                    y="331">if searchbox</text>
            </g>
        </g>
        <g transform="translate(-518,2) scale(1,1)">
            <path fill="#C0C0C0" stroke="none"
                d="M 977 335 L 1077.26171875 335 Q 1087.26171875 335 1087.26171875 345 L 1087.26171875 365 Q 1087.26171875 375 1077.26171875 375 L 977 375 Q 967 375 967 365 L 967 345 Q 967 335 977 335 Z"
                opacity="0.2" />
        </g>
        <g transform="translate(-518,2) scale(1,1)">
            <path fill="#ffffff" stroke="none"
                d="M 970 328 L 1070.26171875 328 Q 1080.26171875 328 1080.26171875 338 L 1080.26171875 358 Q 1080.26171875 368 1070.26171875 368 L 970 368 Q 960 368 960 358 L 960 338 Q 960 328 970 328 Z" />
        </g>
        <g transform="translate(-518,2) scale(1,1)">
            <path fill="none" stroke="#000000"
                d="M 970 328 L 1070.26171875 328 Q 1080.26171875 328 1080.26171875 338 L 1080.26171875 358 Q 1080.26171875 368 1070.26171875 368 L 970 368 Q 960 368 960 358 L 960 338 Q 960 328 970 328 Z"
                stroke-miterlimit="10" />
        </g>
        <g transform="translate(-518,2) scale(1,1)">
            <g>
                <path fill="none" stroke="none" />
                <text fill="#000000" stroke="none" font-family="Arial" font-size="13px"
                    font-style="normal" font-weight="bold" text-decoration="none" x="964.5" y="346">Send
                    all user data</text>
            </g>
        </g>
        <g transform="translate(-518,2) scale(1,1)">
            <path fill="none" stroke="#000000"
                d="M 859 298 L 859 340 M 859 340 A 8 8 0 0 0 867 348 L 960 348"
                stroke-miterlimit="10" />
        </g>
        <g transform="translate(-518,2) scale(1,1)">
            <path fill="none" stroke="#000000"
                d="M 949.8373251423759 352.209517756016 L 960 348 L 949.8373251423758 343.790482243984"
                stroke-miterlimit="10" />
        </g>
        <g transform="translate(-518,2) scale(1,1)">
            <g>
                <path fill="none" stroke="none" />
                <text fill="#000000" stroke="none" font-family="Arial" font-size="13px"
                    font-style="normal" font-weight="normal" text-decoration="none" x="862.5"
                    y="334">is empty</text>
            </g>
        </g>
        <g transform="translate(-518,2) scale(1,1)">
            <path fill="#C0C0C0" stroke="none"
                d="M 961 279 L 1111.10986328125 279 Q 1121.10986328125 279 1121.10986328125 289 L 1121.10986328125 309 Q 1121.10986328125 319 1111.10986328125 319 L 961 319 Q 951 319 951 309 L 951 289 Q 951 279 961 279 Z"
                opacity="0.2" />
        </g>
        <g transform="translate(-518,2) scale(1,1)">
            <path fill="#ffffff" stroke="none"
                d="M 954 272 L 1104.10986328125 272 Q 1114.10986328125 272 1114.10986328125 282 L 1114.10986328125 302 Q 1114.10986328125 312 1104.10986328125 312 L 954 312 Q 944 312 944 302 L 944 282 Q 944 272 954 272 Z" />
        </g>
        <g transform="translate(-518,2) scale(1,1)">
            <path fill="none" stroke="#000000"
                d="M 954 272 L 1104.10986328125 272 Q 1114.10986328125 272 1114.10986328125 282 L 1114.10986328125 302 Q 1114.10986328125 312 1104.10986328125 312 L 954 312 Q 944 312 944 302 L 944 282 Q 944 272 954 272 Z"
                stroke-miterlimit="10" />
        </g>
        <g transform="translate(-518,2) scale(1,1)">
            <g>
                <path fill="none" stroke="none" />
                <text fill="#000000" stroke="none" font-family="Arial" font-size="13px"
                    font-style="normal" font-weight="bold" text-decoration="none" x="948.5" y="290">send
                    the related user data</text>
            </g>
        </g>
        <g transform="translate(-518,2) scale(1,1)">
            <path fill="none" stroke="#000000" d="M 871 289 L 943 290" stroke-miterlimit="10" />
        </g>
        <g transform="translate(-518,2) scale(1,1)">
            <path fill="none" stroke="#000000"
                d="M 932.7798453106822 294.06797715411676 L 943 290 L 932.89676508302 285.6497535457958"
                stroke-miterlimit="10" />
        </g>
        <g transform="translate(-518,2) scale(1,1)">
            <g>
                <path fill="none" stroke="none" />
                <text fill="#000000" stroke="none" font-family="Arial" font-size="13px"
                    font-style="normal" font-weight="normal" text-decoration="none" x="878.5"
                    y="274">has a search term</text>
            </g>
        </g>
        <g transform="translate(-518,2) scale(1,1)">
            <path fill="#C0C0C0" stroke="none"
                d="M 546 247 L 908 247 Q 911 247 911 250 L 911 249 Q 911 252 908 252 L 546 252 Q 543 252 543 249 L 543 250 Q 543 247 546 247 Z"
                opacity="0.2" />
        </g>
        <g transform="translate(-518,2) scale(1,1)">
            <path fill="#000000" stroke="none"
                d="M 539 240 L 901 240 Q 904 240 904 243 L 904 243 Q 904 246 901 246 L 539 246 Q 536 246 536 243 L 536 243 Q 536 240 539 240 Z" />
        </g>
        <g transform="translate(-518,2) scale(1,1)">
            <path fill="none" stroke="#000000" d="M 640 245 L 640 272" stroke-miterlimit="10" />
        </g>
        <g transform="translate(-518,2) scale(1,1)">
            <path fill="none" stroke="#000000"
                d="M 635.790482243984 261.83732514237585 L 640 272 L 644.209517756016 261.83732514237585"
                stroke-miterlimit="10" />
        </g>
        <g transform="translate(-518,2) scale(1,1)">
            <path fill="#C0C0C0" stroke="none"
                d="M 697 359 L 752.4599609375 359 Q 762.4599609375 359 762.4599609375 369 L 762.4599609375 389 Q 762.4599609375 399 752.4599609375 399 L 697 399 Q 687 399 687 389 L 687 369 Q 687 359 697 359 Z"
                opacity="0.2" />
        </g>
        <g transform="translate(-518,2) scale(1,1)">
            <path fill="#ffffff" stroke="none"
                d="M 690 352 L 745.4599609375 352 Q 755.4599609375 352 755.4599609375 362 L 755.4599609375 382 Q 755.4599609375 392 745.4599609375 392 L 690 392 Q 680 392 680 382 L 680 362 Q 680 352 690 352 Z" />
        </g>
        <g transform="translate(-518,2) scale(1,1)">
            <path fill="none" stroke="#000000"
                d="M 690 352 L 745.4599609375 352 Q 755.4599609375 352 755.4599609375 362 L 755.4599609375 382 Q 755.4599609375 392 745.4599609375 392 L 690 392 Q 680 392 680 382 L 680 362 Q 680 352 690 352 Z"
                stroke-miterlimit="10" />
        </g>
        <g transform="translate(-518,2) scale(1,1)">
            <g>
                <path fill="none" stroke="none" />
                <text fill="#000000" stroke="none" font-family="Arial" font-size="13px"
                    font-style="normal" font-weight="bold" text-decoration="none" x="684.5" y="370">New
                    Chats</text>
            </g>
        </g>
        <g transform="translate(-518,2) scale(1,1)">
            <path fill="#C0C0C0" stroke="none"
                d="M 617 359 L 660.16455078125 359 Q 670.16455078125 359 670.16455078125 369 L 670.16455078125 389 Q 670.16455078125 399 660.16455078125 399 L 617 399 Q 607 399 607 389 L 607 369 Q 607 359 617 359 Z"
                opacity="0.2" />
        </g>
        <g transform="translate(-518,2) scale(1,1)">
            <path fill="#ffffff" stroke="none"
                d="M 610 352 L 653.16455078125 352 Q 663.16455078125 352 663.16455078125 362 L 663.16455078125 382 Q 663.16455078125 392 653.16455078125 392 L 610 392 Q 600 392 600 382 L 600 362 Q 600 352 610 352 Z" />
        </g>
        <g transform="translate(-518,2) scale(1,1)">
            <path fill="none" stroke="#000000"
                d="M 610 352 L 653.16455078125 352 Q 663.16455078125 352 663.16455078125 362 L 663.16455078125 382 Q 663.16455078125 392 653.16455078125 392 L 610 392 Q 600 392 600 382 L 600 362 Q 600 352 610 352 Z"
                stroke-miterlimit="10" />
        </g>
        <g transform="translate(-518,2) scale(1,1)">
            <g>
                <path fill="none" stroke="none" />
                <text fill="#000000" stroke="none" font-family="Arial" font-size="13px"
                    font-style="normal" font-weight="bold" text-decoration="none" x="604.5" y="370">Old
                    Chat</text>
            </g>
        </g>
        <g transform="translate(-518,2) scale(1,1)">
            <path fill="#C0C0C0" stroke="none"
                d="M 634 335 L 748 335 Q 751 335 751 338 L 751 337 Q 751 340 748 340 L 634 340 Q 631 340 631 337 L 631 338 Q 631 335 634 335 Z"
                opacity="0.2" />
        </g>
        <g transform="translate(-518,2) scale(1,1)">
            <path fill="#000000" stroke="none"
                d="M 627 328 L 741 328 Q 744 328 744 331 L 744 331 Q 744 334 741 334 L 627 334 Q 624 334 624 331 L 624 331 Q 624 328 627 328 Z" />
        </g>
        <g transform="translate(-518,2) scale(1,1)">
            <path fill="none" stroke="#000000" d="M 712 312 L 712 328" stroke-miterlimit="10" />
        </g>
        <g transform="translate(-518,2) scale(1,1)">
            <path fill="none" stroke="#000000"
                d="M 707.790482243984 317.83732514237585 L 712 328 L 716.209517756016 317.83732514237585"
                stroke-miterlimit="10" />
        </g>
        <g transform="translate(-518,2) scale(1,1)">
            <path fill="none" stroke="#000000" d="M 631 333 L 631 352" stroke-miterlimit="10" />
        </g>
        <g transform="translate(-518,2) scale(1,1)">
            <path fill="none" stroke="#000000"
                d="M 626.790482243984 341.83732514237585 L 631 352 L 635.209517756016 341.83732514237585"
                stroke-miterlimit="10" />
        </g>
        <g transform="translate(-518,2) scale(1,1)">
            <path fill="none" stroke="#000000" d="M 712 333 L 712 352" stroke-miterlimit="10" />
        </g>
        <g transform="translate(-518,2) scale(1,1)">
            <path fill="none" stroke="#000000"
                d="M 707.790482243984 341.83732514237585 L 712 352 L 716.209517756016 341.83732514237585"
                stroke-miterlimit="10" />
        </g>
        <g transform="translate(-518,2) scale(1,1)">
            <path fill="#C0C0C0" stroke="none"
                d="M 671 480.5 L 682.5 471 L 693 480.5 L 682.5 489 L 671 480.5" opacity="0.2" />
        </g>
        <g transform="translate(-518,2) scale(1,1)">
            <path fill="#ffffff" stroke="none" d="M 664 473 L 675 464 L 686 473 L 675 482 L 664 473" />
        </g>
        <g transform="translate(-518,2) scale(1,1)">
            <path fill="none" stroke="#000000"
                d="M 664 473 L 675 464 L 686 473 L 675 482 L 664 473 L 664 473"
                stroke-miterlimit="10" />
        </g>
        <g transform="translate(-518,2) scale(1,1)">
            <g>
                <path fill="none" stroke="none" />
                <text fill="#000000" stroke="none" font-family="Arial" font-size="13px"
                    font-style="normal" font-weight="normal" text-decoration="none" x="693" y="447">If
                    chat is</text>
                <text fill="#000000" stroke="none" font-family="Arial" font-size="13px"
                    font-style="normal" font-weight="normal" text-decoration="none" x="693" y="459">
                    empty</text>
            </g>
        </g>
        <g transform="translate(-518,2) scale(1,1)">
            <path fill="#C0C0C0" stroke="none"
                d="M 985 503 L 1061.4326171875 503 Q 1071.4326171875 503 1071.4326171875 513 L 1071.4326171875 533 Q 1071.4326171875 543 1061.4326171875 543 L 985 543 Q 975 543 975 533 L 975 513 Q 975 503 985 503 Z"
                opacity="0.2" />
        </g>
        <g transform="translate(-518,2) scale(1,1)">
            <path fill="#ffffff" stroke="none"
                d="M 978 496 L 1054.4326171875 496 Q 1064.4326171875 496 1064.4326171875 506 L 1064.4326171875 526 Q 1064.4326171875 536 1054.4326171875 536 L 978 536 Q 968 536 968 526 L 968 506 Q 968 496 978 496 Z" />
        </g>
        <g transform="translate(-518,2) scale(1,1)">
            <path fill="none" stroke="#000000"
                d="M 978 496 L 1054.4326171875 496 Q 1064.4326171875 496 1064.4326171875 506 L 1064.4326171875 526 Q 1064.4326171875 536 1054.4326171875 536 L 978 536 Q 968 536 968 526 L 968 506 Q 968 496 978 496 Z"
                stroke-miterlimit="10" />
        </g>
        <g transform="translate(-518,2) scale(1,1)">
            <g>
                <path fill="none" stroke="none" />
                <text fill="#000000" stroke="none" font-family="Arial" font-size="13px"
                    font-style="normal" font-weight="bold" text-decoration="none" x="972.5" y="514">Get
                    Messages</text>
            </g>
        </g>
        <g transform="translate(-518,2) scale(1,1)">
            <path fill="none" stroke="#000000"
                d="M 686 472 L 1008 472 M 1008 472 A 8 8 0 0 1 1016 480 L 1016 496"
                stroke-miterlimit="10" />
        </g>
        <g transform="translate(-518,2) scale(1,1)">
            <path fill="none" stroke="#000000"
                d="M 1011.790482243984 485.83732514237585 L 1016 496 L 1020.209517756016 485.83732514237585"
                stroke-miterlimit="10" />
        </g>
        <g transform="translate(-518,2) scale(1,1)">
            <g>
                <path fill="none" stroke="none" />
                <text fill="#000000" stroke="none" font-family="Arial" font-size="13px"
                    font-style="normal" font-weight="normal" text-decoration="none" x="1019.5"
                    y="474.5">yes</text>
            </g>
        </g>
        <g transform="translate(-518,2) scale(1,1)">
            <path fill="none" stroke="#000000"
                d="M 1104 312 L 1104 388 M 1104 388 A 8 8 0 0 1 1096 396 L 1022 396"
                stroke-miterlimit="10" />
        </g>
        <g transform="translate(-518,2) scale(1,1)">
            <path fill="none" stroke="#000000"
                d="M 1032.162674857624 391.790482243984 L 1022 396 L 1032.162674857624 400.209517756016"
                stroke-miterlimit="10" />
        </g>
        <g transform="translate(-518,2) scale(1,1)">
            <path fill="none" stroke="#000000" d="M 1003 368 L 1003 392" stroke-miterlimit="10" />
        </g>
        <g transform="translate(-518,2) scale(1,1)">
            <path fill="none" stroke="#000000"
                d="M 998.790482243984 381.83732514237585 L 1003 392 L 1007.209517756016 381.83732514237585"
                stroke-miterlimit="10" />
        </g>
        <g transform="translate(-518,2) scale(1,1)">
            <path fill="#C0C0C0" stroke="none"
                d="M 1007 408.5 L 1018.5 399 L 1029 408.5 L 1018.5 417 L 1007 408.5" opacity="0.2" />
        </g>
        <g transform="translate(-518,2) scale(1,1)">
            <path fill="#ffffff" stroke="none"
                d="M 1000 401 L 1011 392 L 1022 401 L 1011 410 L 1000 401" />
        </g>
        <g transform="translate(-518,2) scale(1,1)">
            <path fill="none" stroke="#000000"
                d="M 1000 401 L 1011 392 L 1022 401 L 1011 410 L 1000 401 L 1000 401"
                stroke-miterlimit="10" />
        </g>
        <g transform="translate(-518,2) scale(1,1)">
            <path fill="none" stroke="#000000"
                d="M 1008 410 L 1008 408 M 1008 408 A 8 8 0 0 1 1000 416 L 760 416 M 760 416 A 8 8 0 0 1 752 408 L 752 392"
                stroke-miterlimit="10" />
        </g>
        <g transform="translate(-518,2) scale(1,1)">
            <path fill="none" stroke="#000000"
                d="M 756.209517756016 402.16267485762415 L 752 392 L 747.790482243984 402.16267485762415"
                stroke-miterlimit="10" />
        </g>
        <g transform="translate(-518,2) scale(1,1)">
            <g>
                <path fill="none" stroke="none" />
                <text fill="#000000" stroke="none" font-family="Arial" font-size="13px"
                    font-style="normal" font-weight="normal" text-decoration="none" x="816.5"
                    y="436">New Chats are added</text>
            </g>
        </g>
        <g transform="translate(-518,2) scale(1,1)">
            <path fill="#C0C0C0" stroke="none"
                d="M 649 511 L 709 511 Q 719 511 719 521 L 719 541 Q 719 551 709 551 L 649 551 Q 639 551 639 541 L 639 521 Q 639 511 649 511 Z"
                opacity="0.2" />
        </g>
        <g transform="translate(-518,2) scale(1,1)">
            <path fill="#ffffff" stroke="none"
                d="M 642 504 L 702 504 Q 712 504 712 514 L 712 534 Q 712 544 702 544 L 642 544 Q 632 544 632 534 L 632 514 Q 632 504 642 504 Z" />
        </g>
        <g transform="translate(-518,2) scale(1,1)">
            <path fill="none" stroke="#000000"
                d="M 642 504 L 702 504 Q 712 504 712 514 L 712 534 Q 712 544 702 544 L 642 544 Q 632 544 632 534 L 632 514 Q 632 504 642 504 Z"
                stroke-miterlimit="10" />
        </g>
        <g transform="translate(-518,2) scale(1,1)">
            <g>
                <path fill="none" stroke="none" />
                <text fill="#000000" stroke="none" font-family="Arial" font-size="13px"
                    font-style="normal" font-weight="bold" text-decoration="none"
                    x="640.925048828125" y="522">Messages</text>
            </g>
        </g>
        <g transform="translate(-518,2) scale(1,1)">
            <path fill="none" stroke="#000000" d="M 672 482 L 672 504" stroke-miterlimit="10" />
        </g>
        <g transform="translate(-518,2) scale(1,1)">
            <path fill="none" stroke="#000000"
                d="M 667.790482243984 493.83732514237585 L 672 504 L 676.209517756016 493.83732514237585"
                stroke-miterlimit="10" />
        </g>
        <g transform="translate(-518,2) scale(1,1)">
            <g>
                <path fill="none" stroke="none" />
                <text fill="#000000" stroke="none" font-family="Arial" font-size="13px"
                    font-style="normal" font-weight="normal" text-decoration="none" x="646.5"
                    y="494">No</text>
            </g>
        </g>
        <g transform="translate(-518,2) scale(1,1)">
            <path fill="none" stroke="#000000" d="M 632 392 L 632 424" stroke-miterlimit="10" />
        </g>
        <g transform="translate(-518,2) scale(1,1)">
            <path fill="none" stroke="#000000"
                d="M 627.790482243984 413.83732514237585 L 632 424 L 636.209517756016 413.83732514237585"
                stroke-miterlimit="10" />
        </g>
        <g transform="translate(-518,2) scale(1,1)">
            <path fill="none" stroke="#000000" d="M 712 392 L 712 424" stroke-miterlimit="10" />
        </g>
        <g transform="translate(-518,2) scale(1,1)">
            <path fill="none" stroke="#000000"
                d="M 707.790482243984 413.83732514237585 L 712 424 L 716.209517756016 413.83732514237585"
                stroke-miterlimit="10" />
        </g>
        <g transform="translate(-518,2) scale(1,1)">
            <path fill="none" stroke="#000000" d="M 675 430 L 675 463" stroke-miterlimit="10" />
        </g>
        <g transform="translate(-518,2) scale(1,1)">
            <path fill="none" stroke="#000000"
                d="M 670.790482243984 452.83732514237585 L 675 463 L 679.209517756016 452.83732514237585"
                stroke-miterlimit="10" />
        </g>
        <g transform="translate(-518,2) scale(1,1)">
            <path fill="#C0C0C0" stroke="none"
                d="M 625 599 L 664 599 Q 674 599 674 609 L 674 629 Q 674 639 664 639 L 625 639 Q 615 639 615 629 L 615 609 Q 615 599 625 599 Z"
                opacity="0.2" />
        </g>
        <g transform="translate(-518,2) scale(1,1)">
            <path fill="#ffffff" stroke="none"
                d="M 618 592 L 657 592 Q 667 592 667 602 L 667 622 Q 667 632 657 632 L 618 632 Q 608 632 608 622 L 608 602 Q 608 592 618 592 Z" />
        </g>
        <g transform="translate(-518,2) scale(1,1)">
            <path fill="none" stroke="#000000"
                d="M 618 592 L 657 592 Q 667 592 667 602 L 667 622 Q 667 632 657 632 L 618 632 Q 608 632 608 622 L 608 602 Q 608 592 618 592 Z"
                stroke-miterlimit="10" />
        </g>
        <g transform="translate(-518,2) scale(1,1)">
            <g>
                <path fill="none" stroke="none" />
                <text fill="#000000" stroke="none" font-family="Arial" font-size="13px"
                    font-style="normal" font-weight="bold" text-decoration="none"
                    x="624.617431640625" y="610">Text</text>
            </g>
        </g>
        <g transform="translate(-518,2) scale(1,1)">
            <path fill="#C0C0C0" stroke="none"
                d="M 689 599 L 728 599 Q 738 599 738 609 L 738 629 Q 738 639 728 639 L 689 639 Q 679 639 679 629 L 679 609 Q 679 599 689 599 Z"
                opacity="0.2" />
        </g>
        <g transform="translate(-518,2) scale(1,1)">
            <path fill="#ffffff" stroke="none"
                d="M 682 592 L 721 592 Q 731 592 731 602 L 731 622 Q 731 632 721 632 L 682 632 Q 672 632 672 622 L 672 602 Q 672 592 682 592 Z" />
        </g>
        <g transform="translate(-518,2) scale(1,1)">
            <path fill="none" stroke="#000000"
                d="M 682 592 L 721 592 Q 731 592 731 602 L 731 622 Q 731 632 721 632 L 682 632 Q 672 632 672 622 L 672 602 Q 672 592 682 592 Z"
                stroke-miterlimit="10" />
        </g>
        <g transform="translate(-518,2) scale(1,1)">
            <g>
                <path fill="none" stroke="none" />
                <text fill="#000000" stroke="none" font-family="Arial" font-size="13px"
                    font-style="normal" font-weight="bold" text-decoration="none"
                    x="682.714111328125" y="610">Image</text>
            </g>
        </g>
        <g transform="translate(-518,2) scale(1,1)">
            <path fill="none" stroke="#000000" d="M 672 544 L 672 568" stroke-miterlimit="10" />
        </g>
        <g transform="translate(-518,2) scale(1,1)">
            <path fill="none" stroke="#000000"
                d="M 667.790482243984 557.8373251423759 L 672 568 L 676.209517756016 557.8373251423759"
                stroke-miterlimit="10" />
        </g>
        <g transform="translate(-518,2) scale(1,1)">
            <path fill="#C0C0C0" stroke="none"
                d="M 626 575 L 724 575 Q 727 575 727 578 L 727 577 Q 727 580 724 580 L 626 580 Q 623 580 623 577 L 623 578 Q 623 575 626 575 Z"
                opacity="0.2" />
        </g>
        <g transform="translate(-518,2) scale(1,1)">
            <path fill="#000000" stroke="none"
                d="M 619 568 L 717 568 Q 720 568 720 571 L 720 571 Q 720 574 717 574 L 619 574 Q 616 574 616 571 L 616 571 Q 616 568 619 568 Z" />
        </g>
        <g transform="translate(-518,2) scale(1,1)">
            <path fill="#C0C0C0" stroke="none"
                d="M 610 431 L 755 431 Q 758 431 758 434 L 758 433 Q 758 436 755 436 L 610 436 Q 607 436 607 433 L 607 434 Q 607 431 610 431 Z"
                opacity="0.2" />
        </g>
        <g transform="translate(-518,2) scale(1,1)">
            <path fill="#000000" stroke="none"
                d="M 603 424 L 748 424 Q 751 424 751 427 L 751 427 Q 751 430 748 430 L 603 430 Q 600 430 600 427 L 600 427 Q 600 424 603 424 Z" />
        </g>
        <g transform="translate(-518,2) scale(1,1)">
            <path fill="none" stroke="#000000" d="M 712 245 L 712 272" stroke-miterlimit="10" />
        </g>
        <g transform="translate(-518,2) scale(1,1)">
            <path fill="none" stroke="#000000"
                d="M 707.790482243984 261.83732514237585 L 712 272 L 716.209517756016 261.83732514237585"
                stroke-miterlimit="10" />
        </g>
        <g transform="translate(-518,2) scale(1,1)">
            <path fill="none" stroke="#000000" d="M 968 523 L 712 523" stroke-miterlimit="10" />
        </g>
        <g transform="translate(-518,2) scale(1,1)">
            <path fill="none" stroke="#000000"
                d="M 722.1626748576241 518.790482243984 L 712 523 L 722.1626748576241 527.209517756016"
                stroke-miterlimit="10" />
        </g>
        <g transform="translate(-518,2) scale(1,1)">
            <path fill="none" stroke="#000000" d="M 640 573 L 640 592" stroke-miterlimit="10" />
        </g>
        <g transform="translate(-518,2) scale(1,1)">
            <path fill="none" stroke="#000000"
                d="M 635.790482243984 581.8373251423759 L 640 592 L 644.209517756016 581.8373251423759"
                stroke-miterlimit="10" />
        </g>
        <g transform="translate(-518,2) scale(1,1)">
            <path fill="none" stroke="#000000" d="M 696 573 L 696 592" stroke-miterlimit="10" />
        </g>
        <g transform="translate(-518,2) scale(1,1)">
            <path fill="none" stroke="#000000"
                d="M 691.790482243984 581.8373251423759 L 696 592 L 700.209517756016 581.8373251423759"
                stroke-miterlimit="10" />
        </g>
        <g transform="translate(-518,2) scale(1,1)">
            <path fill="#C0C0C0" stroke="none"
                d="M 657 695 L 696 695 Q 706 695 706 705 L 706 725 Q 706 735 696 735 L 657 735 Q 647 735 647 725 L 647 705 Q 647 695 657 695 Z"
                opacity="0.2" />
        </g>
        <g transform="translate(-518,2) scale(1,1)">
            <path fill="#ffffff" stroke="none"
                d="M 650 688 L 689 688 Q 699 688 699 698 L 699 718 Q 699 728 689 728 L 650 728 Q 640 728 640 718 L 640 698 Q 640 688 650 688 Z" />
        </g>
        <g transform="translate(-518,2) scale(1,1)">
            <path fill="none" stroke="#000000"
                d="M 650 688 L 689 688 Q 699 688 699 698 L 699 718 Q 699 728 689 728 L 650 728 Q 640 728 640 718 L 640 698 Q 640 688 650 688 Z"
                stroke-miterlimit="10" />
        </g>
        <g transform="translate(-518,2) scale(1,1)">
            <g>
                <path fill="none" stroke="none" />
                <text fill="#000000" stroke="none" font-family="Arial" font-size="13px"
                    font-style="normal" font-weight="bold" text-decoration="none"
                    x="653.608642578125" y="706">Send</text>
            </g>
        </g>
        <g transform="translate(-518,2) scale(1,1)">
            <path fill="none" stroke="#000000" d="M 640 632 L 640 656" stroke-miterlimit="10" />
        </g>
        <g transform="translate(-518,2) scale(1,1)">
            <path fill="none" stroke="#000000"
                d="M 635.790482243984 645.8373251423759 L 640 656 L 644.209517756016 645.8373251423759"
                stroke-miterlimit="10" />
        </g>
        <g transform="translate(-518,2) scale(1,1)">
            <path fill="none" stroke="#000000" d="M 696 632 L 696 656" stroke-miterlimit="10" />
        </g>
        <g transform="translate(-518,2) scale(1,1)">
            <path fill="none" stroke="#000000"
                d="M 691.790482243984 645.8373251423759 L 696 656 L 700.209517756016 645.8373251423759"
                stroke-miterlimit="10" />
        </g>
        <g transform="translate(-518,2) scale(1,1)">
            <path fill="#C0C0C0" stroke="none"
                d="M 626 663 L 716 663 Q 719 663 719 666 L 719 665 Q 719 668 716 668 L 626 668 Q 623 668 623 665 L 623 666 Q 623 663 626 663 Z"
                opacity="0.2" />
        </g>
        <g transform="translate(-518,2) scale(1,1)">
            <path fill="#000000" stroke="none"
                d="M 619 656 L 709 656 Q 712 656 712 659 L 712 659 Q 712 662 709 662 L 619 662 Q 616 662 616 659 L 616 659 Q 616 656 619 656 Z" />
        </g>
        <g transform="translate(-518,2) scale(1,1)">
            <path fill="none" stroke="#000000" d="M 671 661 L 671 688" stroke-miterlimit="10" />
        </g>
        <g transform="translate(-518,2) scale(1,1)">
            <path fill="none" stroke="#000000"
                d="M 666.790482243984 677.8373251423759 L 671 688 L 675.209517756016 677.8373251423759"
                stroke-miterlimit="10" />
        </g>
        <g transform="translate(-518,2) scale(1,1)">
            <path fill="#C0C0C0" stroke="none"
                d="M 993 695 L 1037 695 Q 1047 695 1047 705 L 1047 725 Q 1047 735 1037 735 L 993 735 Q 983 735 983 725 L 983 705 Q 983 695 993 695 Z"
                opacity="0.2" />
        </g>
        <g transform="translate(-518,2) scale(1,1)">
            <path fill="#ffffff" stroke="none"
                d="M 986 688 L 1030 688 Q 1040 688 1040 698 L 1040 718 Q 1040 728 1030 728 L 986 728 Q 976 728 976 718 L 976 698 Q 976 688 986 688 Z" />
        </g>
        <g transform="translate(-518,2) scale(1,1)">
            <path fill="none" stroke="#000000"
                d="M 986 688 L 1030 688 Q 1040 688 1040 698 L 1040 718 Q 1040 728 1030 728 L 986 728 Q 976 728 976 718 L 976 698 Q 976 688 986 688 Z"
                stroke-miterlimit="10" />
        </g>
        <g transform="translate(-518,2) scale(1,1)">
            <g>
                <path fill="none" stroke="none" />
                <text fill="#000000" stroke="none" font-family="Arial" font-size="13px"
                    font-style="normal" font-weight="bold" text-decoration="none"
                    x="982.70458984375" y="706">Process</text>
            </g>
        </g>
        <g transform="translate(-518,2) scale(1,1)">
            <path fill="none" stroke="#000000" d="M 699 704 L 976 704" stroke-miterlimit="10" />
        </g>
        <g transform="translate(-518,2) scale(1,1)">
            <path fill="none" stroke="#000000"
                d="M 965.8373251423759 708.209517756016 L 976 704 L 965.8373251423758 699.790482243984"
                stroke-miterlimit="10" />
        </g>
        <g transform="translate(-518,2) scale(1,1)">
            <g>
                <path fill="none" stroke="none" />
                <text fill="#000000" stroke="none" font-family="Arial" font-size="13px"
                    font-style="normal" font-weight="normal" text-decoration="none" x="719.5"
                    y="690">Sends to specified user and saves in db</text>
            </g>
        </g>
        <g transform="translate(-518,2) scale(1,1)">
            <path fill="none" stroke="#000000" d="M 818 59 L 818 88" stroke-miterlimit="10" />
        </g>
        <g transform="translate(-518,2) scale(1,1)">
            <path fill="none" stroke="#000000"
                d="M 813.790482243984 77.83732514237585 L 818 88 L 822.209517756016 77.83732514237585"
                stroke-miterlimit="10" />
        </g>
        <g transform="translate(-518,2) scale(1,1)">
            <path fill="#C0C0C0" stroke="none"
                d="M 553 279 L 592 279 Q 602 279 602 289 L 602 309 Q 602 319 592 319 L 553 319 Q 543 319 543 309 L 543 289 Q 543 279 553 279 Z"
                opacity="0.2" />
        </g>
        <g transform="translate(-518,2) scale(1,1)">
            <path fill="#ffffff" stroke="none"
                d="M 546 272 L 585 272 Q 595 272 595 282 L 595 302 Q 595 312 585 312 L 546 312 Q 536 312 536 302 L 536 282 Q 536 272 546 272 Z" />
        </g>
        <g transform="translate(-518,2) scale(1,1)">
            <path fill="none" stroke="#000000"
                d="M 546 272 L 585 272 Q 595 272 595 282 L 595 302 Q 595 312 585 312 L 546 312 Q 536 312 536 302 L 536 282 Q 536 272 546 272 Z"
                stroke-miterlimit="10" />
        </g>
        <g transform="translate(-518,2) scale(1,1)">
            <g>
                <path fill="none" stroke="none" />
                <text fill="#000000" stroke="none" font-family="Arial" font-size="13px"
                    font-style="normal" font-weight="bold" text-decoration="none"
                    x="543.483154296875" y="290">Logout</text>
            </g>
        </g>
        <g transform="translate(-518,2) scale(1,1)">
            <path fill="none" stroke="#000000" d="M 568 245 L 568 272" stroke-miterlimit="10" />
        </g>
        <g transform="translate(-518,2) scale(1,1)">
            <path fill="none" stroke="#000000"
                d="M 563.790482243984 261.83732514237585 L 568 272 L 572.209517756016 261.83732514237585"
                stroke-miterlimit="10" />
        </g>
        <g transform="translate(-518,2) scale(1,1)">
            <path fill="#C0C0C0" stroke="none"
                d="M 559 355.5 C 559 348.59644 564.59644 343 571.5 343 C 578.40356 343 584 348.59644 584 355.5 C 584 362.40356 578.40356 368 571.5 368 C 564.59644 368 559 362.40356 559 355.5 Z"
                opacity="0.2" />
        </g>
        <g transform="translate(-518,2) scale(1,1)">
            <path fill="none" stroke="#000000"
                d="M 552 348.5 C 552 341.59644 557.59644 336 564.5 336 C 571.40356 336 577 341.59644 577 348.5 C 577 355.40356 571.40356 361 564.5 361 C 557.59644 361 552 355.40356 552 348.5 Z"
                stroke-miterlimit="10" />
        </g>
        <g transform="translate(-518,2) scale(1,1)">
            <path fill="#000000" stroke="none"
                d="M 557 348.5 C 557 344.357864 560.357864 341 564.5 341 C 568.642136 341 572 344.357864 572 348.5 C 572 352.642136 568.642136 356 564.5 356 C 560.357864 356 557 352.642136 557 348.5 Z" />
        </g>
        <g transform="translate(-518,2) scale(1,1)">
            <path fill="none" stroke="#000000" d="M 567 312 L 567 336" stroke-miterlimit="10" />
        </g>
        <g transform="translate(-518,2) scale(1,1)">
            <path fill="none" stroke="#000000"
                d="M 562.790482243984 325.83732514237585 L 567 336 L 571.209517756016 325.83732514237585"
                stroke-miterlimit="10" />
        </g>
    </g>
</svg>