<svg version="1.1" xmlns="http://www.w3.org/2000/svg" xmlns:xlink="http://www.w3.org/1999/xlink"
    width="900" height="636">
    <defs />
    <g>
        <g transform="translate(-70,2) scale(1,1)">
            <path fill="none" stroke="#000000" d="M 80 8 L 960 8 L 960 624 L 80 624 L 80 8"
                stroke-miterlimit="10" />
        </g>
        <g transform="translate(-70,2) scale(1,1)">
            <path fill="#ffffff" stroke="none"
                d="M 80 8 L 80 30 L 221.01708984375 30 L 232.01708984375 19 L 232.01708984375 8 L 80 8" />
        </g>
        <g transform="translate(-70,2) scale(1,1)">
            <path fill="none" stroke="#000000"
                d="M 80 8 L 80 30 L 221.01708984375 30 L 232.01708984375 19 L 232.01708984375 8 L 80 8 L 80 8"
                stroke-miterlimit="10" />
        </g>
        <g transform="translate(-70,2) scale(1,1)">
            <g>
                <path fill="none" stroke="none" />
                <text fill="#000000" stroke="none" font-family="Arial" font-size="13px"
                    font-style="normal" font-weight="normal" text-decoration="none"
                    x="104.72998046875" y="24">Sequence Diagram</text>
            </g>
        </g>
        <g transform="translate(-70,2) scale(1,1)">
            <g>
                <path fill="none" stroke="none" />
                <text fill="#000000" stroke="none" font-family="Arial" font-size="13px"
                    font-style="normal" font-weight="bold" text-decoration="none"
                    x="84.279541015625" y="24">sd</text>
            </g>
        </g>
        <g transform="translate(-70,2) scale(1,1)">
            <rect fill="#C0C0C0" stroke="none" x="823" y="47" width="133.17529296875" height="39"
                opacity="0.2" />
        </g>
        <g transform="translate(-70,2) scale(1,1)">
            <rect fill="#ffffff" stroke="none" x="816" y="40" width="133.17529296875" height="39" />
        </g>
        <g transform="translate(-70,2) scale(1,1)">
            <path fill="none" stroke="#000000"
                d="M 816 40 L 949.17529296875 40 L 949.17529296875 79 L 816 79 L 816 40 Z Z"
                stroke-miterlimit="10" />
        </g>
        <g transform="translate(-70,2) scale(1,1)">
            <g>
                <path fill="none" stroke="none" />
                <text fill="#000000" stroke="none" font-family="Arial" font-size="13px"
                    font-style="normal" font-weight="bold" text-decoration="none" x="853.68359375"
                    y="58">Database</text>
            </g>
        </g>
        <g transform="translate(-70,2) scale(1,1)">
            <path fill="none" stroke="#000000" d="M 883.5 80 L 883.5 616" stroke-miterlimit="10"
                stroke-dasharray="3" />
        </g>
        <g transform="translate(-70,2) scale(1,1)">
            <rect fill="#C0C0C0" stroke="none" x="679" y="47" width="133.17529296875" height="39"
                opacity="0.2" />
        </g>
        <g transform="translate(-70,2) scale(1,1)">
            <rect fill="#ffffff" stroke="none" x="672" y="40" width="133.17529296875" height="39" />
        </g>
        <g transform="translate(-70,2) scale(1,1)">
            <path fill="none" stroke="#000000"
                d="M 672 40 L 805.17529296875 40 L 805.17529296875 79 L 672 79 L 672 40 Z Z"
                stroke-miterlimit="10" />
        </g>
        <g transform="translate(-70,2) scale(1,1)">
            <g>
                <path fill="none" stroke="none" />
                <text fill="#000000" stroke="none" font-family="Arial" font-size="13px"
                    font-style="normal" font-weight="bold" text-decoration="none"
                    x="711.483154296875" y="58">Receiver</text>
            </g>
        </g>
        <g transform="translate(-70,2) scale(1,1)">
            <path fill="none" stroke="#000000" d="M 739.5 80 L 739.5 616" stroke-miterlimit="10"
                stroke-dasharray="3" />
        </g>
        <g transform="translate(-70,2) scale(1,1)">
            <rect fill="#C0C0C0" stroke="none" x="535" y="47" width="133.17529296875" height="39"
                opacity="0.2" />
        </g>
        <g transform="translate(-70,2) scale(1,1)">
            <rect fill="#ffffff" stroke="none" x="528" y="40" width="133.17529296875" height="39" />
        </g>
        <g transform="translate(-70,2) scale(1,1)">
            <path fill="none" stroke="#000000"
                d="M 528 40 L 661.17529296875 40 L 661.17529296875 79 L 528 79 L 528 40 Z Z"
                stroke-miterlimit="10" />
        </g>
        <g transform="translate(-70,2) scale(1,1)">
            <g>
                <path fill="none" stroke="none" />
                <text fill="#000000" stroke="none" font-family="Arial" font-size="13px"
                    font-style="normal" font-weight="bold" text-decoration="none" x="537.5" y="58">Receiver
                    SocketIO</text>
            </g>
        </g>
        <g transform="translate(-70,2) scale(1,1)">
            <path fill="none" stroke="#000000" d="M 595.5 80 L 595.5 616" stroke-miterlimit="10"
                stroke-dasharray="3" />
        </g>
        <g transform="translate(-70,2) scale(1,1)">
            <rect fill="#C0C0C0" stroke="none" x="391" y="47" width="133.17529296875" height="39"
                opacity="0.2" />
        </g>
        <g transform="translate(-70,2) scale(1,1)">
            <rect fill="#ffffff" stroke="none" x="384" y="40" width="133.17529296875" height="39" />
        </g>
        <g transform="translate(-70,2) scale(1,1)">
            <path fill="none" stroke="#000000"
                d="M 384 40 L 517.17529296875 40 L 517.17529296875 79 L 384 79 L 384 40 Z Z"
                stroke-miterlimit="10" />
        </g>
        <g transform="translate(-70,2) scale(1,1)">
            <g>
                <path fill="none" stroke="none" />
                <text fill="#000000" stroke="none" font-family="Arial" font-size="13px"
                    font-style="normal" font-weight="bold" text-decoration="none"
                    x="430.34814453125" y="58">Server</text>
            </g>
        </g>
        <g transform="translate(-70,2) scale(1,1)">
            <path fill="none" stroke="#000000" d="M 451.5 80 L 451.5 616" stroke-miterlimit="10"
                stroke-dasharray="3" />
        </g>
        <g transform="translate(-70,2) scale(1,1)">
            <rect fill="#C0C0C0" stroke="none" x="247" y="47" width="133.17529296875" height="39"
                opacity="0.2" />
        </g>
        <g transform="translate(-70,2) scale(1,1)">
            <rect fill="#ffffff" stroke="none" x="240" y="40" width="133.17529296875" height="39" />
        </g>
        <g transform="translate(-70,2) scale(1,1)">
            <path fill="none" stroke="#000000"
                d="M 240 40 L 373.17529296875 40 L 373.17529296875 79 L 240 79 L 240 40 Z Z"
                stroke-miterlimit="10" />
        </g>
        <g transform="translate(-70,2) scale(1,1)">
            <g>
                <path fill="none" stroke="none" />
                <text fill="#000000" stroke="none" font-family="Arial" font-size="13px"
                    font-style="normal" font-weight="bold" text-decoration="none"
                    x="258.548583984375" y="58">Client SocketIO</text>
            </g>
        </g>
        <g transform="translate(-70,2) scale(1,1)">
            <path fill="none" stroke="#000000" d="M 307.5 80 L 307.5 616" stroke-miterlimit="10"
                stroke-dasharray="3" />
        </g>
        <g transform="translate(-70,2) scale(1,1)">
            <rect fill="#C0C0C0" stroke="none" x="103" y="47" width="133.17529296875" height="39"
                opacity="0.2" />
        </g>
        <g transform="translate(-70,2) scale(1,1)">
            <rect fill="#ffffff" stroke="none" x="96" y="40" width="133.17529296875" height="39" />
        </g>
        <g transform="translate(-70,2) scale(1,1)">
            <path fill="none" stroke="#000000"
                d="M 96 40 L 229.17529296875 40 L 229.17529296875 79 L 96 79 L 96 40 Z Z"
                stroke-miterlimit="10" />
        </g>
        <g transform="translate(-70,2) scale(1,1)">
            <g>
                <path fill="none" stroke="none" />
                <text fill="#000000" stroke="none" font-family="Arial" font-size="13px"
                    font-style="normal" font-weight="bold" text-decoration="none" x="140.5517578125"
                    y="58">Sender</text>
            </g>
        </g>
        <g transform="translate(-70,2) scale(1,1)">
            <path fill="none" stroke="#000000" d="M 163.5 80 L 163.5 616" stroke-miterlimit="10"
                stroke-dasharray="3" />
        </g>
        <g transform="translate(-70,2) scale(1,1)">
            <path fill="none" stroke="#000000" d="M 163 104 L 444 104" stroke-miterlimit="10" />
        </g>
        <g transform="translate(-70,2) scale(1,1)">
            <path fill="#000000" stroke="none"
                d="M 433.83732514237585 108.20951775601598 L 444 104 L 433.83732514237585 99.79048224398402" />
        </g>
        <g transform="translate(-70,2) scale(1,1)">
            <path fill="none" stroke="#000000"
                d="M 433.83732514237585 108.20951775601598 L 444 104 L 433.83732514237585 99.79048224398402 L 433.83732514237585 108.20951775601598"
                stroke-miterlimit="10" />
        </g>
        <g transform="translate(-70,2) scale(1,1)">
            <g>
                <path fill="none" stroke="none" />
                <text fill="#000000" stroke="none" font-family="Arial" font-size="13px"
                    font-style="normal" font-weight="normal" text-decoration="none" x="223.5" y="99">1
                    : Sends Login Credentials</text>
            </g>
        </g>
        <g transform="translate(-70,2) scale(1,1)">
            <rect fill="#ffffff" stroke="none" x="444" y="104" width="13" height="28" />
        </g>
        <g transform="translate(-70,2) scale(1,1)">
            <path fill="none" stroke="#000000"
                d="M 444 104 L 457 104 L 457 132 L 444 132 L 444 104 Z Z" stroke-miterlimit="10" />
        </g>
        <g transform="translate(-70,2) scale(1,1)">
            <path fill="none" stroke="#000000" d="M 457 120 L 487 120 L 487 140 L 457 140"
                stroke-miterlimit="10" />
        </g>
        <g transform="translate(-70,2) scale(1,1)">
            <path fill="#000000" stroke="none"
                d="M 467.16267485762415 135.790482243984 L 457 140 L 467.16267485762415 144.209517756016" />
        </g>
        <g transform="translate(-70,2) scale(1,1)">
            <path fill="none" stroke="#000000"
                d="M 467.16267485762415 135.790482243984 L 457 140 L 467.16267485762415 144.209517756016 L 467.16267485762415 135.790482243984"
                stroke-miterlimit="10" />
        </g>
        <g transform="translate(-70,2) scale(1,1)">
            <g>
                <path fill="none" stroke="none" />
                <text fill="#000000" stroke="none" font-family="Arial" font-size="13px"
                    font-style="normal" font-weight="normal" text-decoration="none" x="262.5"
                    y="138">2 : Hashes plaintext password</text>
            </g>
        </g>
        <g transform="translate(-70,2) scale(1,1)">
            <rect fill="#ffffff" stroke="none" x="444" y="140" width="13" height="60" />
        </g>
        <g transform="translate(-70,2) scale(1,1)">
            <path fill="none" stroke="#000000"
                d="M 444 140 L 457 140 L 457 200 L 444 200 L 444 140 Z Z" stroke-miterlimit="10" />
        </g>
        <g transform="translate(-70,2) scale(1,1)">
            <path fill="none" stroke="#000000" d="M 457 157 L 876 157" stroke-miterlimit="10" />
        </g>
        <g transform="translate(-70,2) scale(1,1)">
            <path fill="#000000" stroke="none"
                d="M 865.8373251423759 161.209517756016 L 876 157 L 865.8373251423758 152.790482243984" />
        </g>
        <g transform="translate(-70,2) scale(1,1)">
            <path fill="none" stroke="#000000"
                d="M 865.8373251423759 161.209517756016 L 876 157 L 865.8373251423758 152.790482243984 L 865.8373251423759 161.209517756016"
                stroke-miterlimit="10" />
        </g>
        <g transform="translate(-70,2) scale(1,1)">
            <g>
                <path fill="none" stroke="none" />
                <text fill="#000000" stroke="none" font-family="Arial" font-size="13px"
                    font-style="normal" font-weight="normal" text-decoration="none" x="498.5"
                    y="152">3 : Sends request to get credentials and hashed password</text>
            </g>
        </g>
        <g transform="translate(-70,2) scale(1,1)">
            <rect fill="#ffffff" stroke="none" x="876" y="157" width="13" height="28" />
        </g>
        <g transform="translate(-70,2) scale(1,1)">
            <path fill="none" stroke="#000000"
                d="M 876 157 L 889 157 L 889 185 L 876 185 L 876 157 Z Z" stroke-miterlimit="10" />
        </g>
        <g transform="translate(-70,2) scale(1,1)">
            <path fill="none" stroke="#000000" d="M 876 179 L 457 179" stroke-miterlimit="10"
                stroke-dasharray="3" />
        </g>
        <g transform="translate(-70,2) scale(1,1)">
            <path fill="none" stroke="#000000"
                d="M 467.16267485762415 174.790482243984 L 457 179 L 467.16267485762415 183.209517756016"
                stroke-miterlimit="10" />
        </g>
        <g transform="translate(-70,2) scale(1,1)">
            <g>
                <path fill="none" stroke="none" />
                <text fill="#000000" stroke="none" font-family="Arial" font-size="13px"
                    font-style="normal" font-weight="normal" text-decoration="none" x="581.5"
                    y="194">4 : Sends the requested data</text>
            </g>
        </g>
        <g transform="translate(-70,2) scale(1,1)">
            <path fill="none" stroke="#000000" d="M 444 192 L 163 192" stroke-miterlimit="10"
                stroke-dasharray="3" />
        </g>
        <g transform="translate(-70,2) scale(1,1)">
            <path fill="none" stroke="#000000"
                d="M 173.16267485762415 187.790482243984 L 163 192 L 173.16267485762415 196.209517756016"
                stroke-miterlimit="10" />
        </g>
        <g transform="translate(-70,2) scale(1,1)">
            <g>
                <path fill="none" stroke="none" />
                <text fill="#000000" stroke="none" font-family="Arial" font-size="13px"
                    font-style="normal" font-weight="normal" text-decoration="none" x="231.5"
                    y="206">5 : Gets logged in access</text>
            </g>
        </g>
        <g transform="translate(-70,2) scale(1,1)">
            <path fill="none" stroke="#000000" d="M 163 218 L 444 218" stroke-miterlimit="10" />
        </g>
        <g transform="translate(-70,2) scale(1,1)">
            <path fill="#000000" stroke="none"
                d="M 433.83732514237585 222.209517756016 L 444 218 L 433.83732514237585 213.790482243984" />
        </g>
        <g transform="translate(-70,2) scale(1,1)">
            <path fill="none" stroke="#000000"
                d="M 433.83732514237585 222.209517756016 L 444 218 L 433.83732514237585 213.790482243984 L 433.83732514237585 222.209517756016"
                stroke-miterlimit="10" />
        </g>
        <g transform="translate(-70,2) scale(1,1)">
            <g>
                <path fill="none" stroke="none" />
                <text fill="#000000" stroke="none" font-family="Arial" font-size="13px"
                    font-style="normal" font-weight="normal" text-decoration="none" x="207.5"
                    y="242">6 : Searches for a person using the app</text>
            </g>
        </g>
        <g transform="translate(-70,2) scale(1,1)">
            <rect fill="#ffffff" stroke="none" x="444" y="218" width="13" height="56" />
        </g>
        <g transform="translate(-70,2) scale(1,1)">
            <path fill="none" stroke="#000000"
                d="M 444 218 L 457 218 L 457 274 L 444 274 L 444 218 Z Z" stroke-miterlimit="10" />
        </g>
        <g transform="translate(-70,2) scale(1,1)">
            <path fill="none" stroke="#000000" d="M 457 230 L 876 230" stroke-miterlimit="10" />
        </g>
        <g transform="translate(-70,2) scale(1,1)">
            <path fill="#000000" stroke="none"
                d="M 865.8373251423759 234.209517756016 L 876 230 L 865.8373251423758 225.790482243984" />
        </g>
        <g transform="translate(-70,2) scale(1,1)">
            <path fill="none" stroke="#000000"
                d="M 865.8373251423759 234.209517756016 L 876 230 L 865.8373251423758 225.790482243984 L 865.8373251423759 234.209517756016"
                stroke-miterlimit="10" />
        </g>
        <g transform="translate(-70,2) scale(1,1)">
            <g>
                <path fill="none" stroke="none" />
                <text fill="#000000" stroke="none" font-family="Arial" font-size="13px"
                    font-style="normal" font-weight="normal" text-decoration="none" x="514.5"
                    y="225">7 : Requests the required users that match the query</text>
            </g>
        </g>
        <g transform="translate(-70,2) scale(1,1)">
            <rect fill="#ffffff" stroke="none" x="876" y="230" width="13" height="28" />
        </g>
        <g transform="translate(-70,2) scale(1,1)">
            <path fill="none" stroke="#000000"
                d="M 876 230 L 889 230 L 889 258 L 876 258 L 876 230 Z Z" stroke-miterlimit="10" />
        </g>
        <g transform="translate(-70,2) scale(1,1)">
            <path fill="none" stroke="#000000" d="M 876 254 L 457 254" stroke-miterlimit="10"
                stroke-dasharray="3" />
        </g>
        <g transform="translate(-70,2) scale(1,1)">
            <path fill="none" stroke="#000000"
                d="M 467.16267485762415 249.790482243984 L 457 254 L 467.16267485762415 258.209517756016"
                stroke-miterlimit="10" />
        </g>
        <g transform="translate(-70,2) scale(1,1)">
            <g>
                <path fill="none" stroke="none" />
                <text fill="#000000" stroke="none" font-family="Arial" font-size="13px"
                    font-style="normal" font-weight="normal" text-decoration="none" x="562.5"
                    y="269">8 : Responds with te required users</text>
            </g>
        </g>
        <g transform="translate(-70,2) scale(1,1)">
            <path fill="none" stroke="#000000" d="M 444 260 L 163 260" stroke-miterlimit="10"
                stroke-dasharray="3" />
        </g>
        <g transform="translate(-70,2) scale(1,1)">
            <path fill="none" stroke="#000000"
                d="M 173.16267485762415 255.790482243984 L 163 260 L 173.16267485762415 264.209517756016"
                stroke-miterlimit="10" />
        </g>
        <g transform="translate(-70,2) scale(1,1)">
            <g>
                <path fill="none" stroke="none" />
                <text fill="#000000" stroke="none" font-family="Arial" font-size="13px"
                    font-style="normal" font-weight="normal" text-decoration="none" x="186.5"
                    y="275">9 : Replays the same data to the sender</text>
            </g>
        </g>
        <g transform="translate(-70,2) scale(1,1)">
            <path fill="none" stroke="#000000" d="M 163 280 L 193 280 L 193 300 L 169 300"
                stroke-miterlimit="10" />
        </g>
        <g transform="translate(-70,2) scale(1,1)">
            <path fill="#000000" stroke="none"
                d="M 179.16267485762415 295.790482243984 L 169 300 L 179.16267485762415 304.209517756016" />
        </g>
        <g transform="translate(-70,2) scale(1,1)">
            <path fill="none" stroke="#000000"
                d="M 179.16267485762415 295.790482243984 L 169 300 L 179.16267485762415 304.209517756016 L 179.16267485762415 295.790482243984"
                stroke-miterlimit="10" />
        </g>
        <g transform="translate(-70,2) scale(1,1)">
            <g>
                <path fill="none" stroke="none" />
                <text fill="#000000" stroke="none" font-family="Arial" font-size="13px"
                    font-style="normal" font-weight="normal" text-decoration="none"
                    x="183.983154296875" y="315">10 : If the query matches to one particular user a
                    new chat is opened</text>
            </g>
        </g>
        <g transform="translate(-70,2) scale(1,1)">
            <rect fill="#ffffff" stroke="none" x="156" y="300" width="13" height="28" />
        </g>
        <g transform="translate(-70,2) scale(1,1)">
            <path fill="none" stroke="#000000"
                d="M 156 300 L 169 300 L 169 328 L 156 328 L 156 300 Z Z" stroke-miterlimit="10" />
        </g>
        <g transform="translate(-70,2) scale(1,1)">
            <path fill="none" stroke="#000000" d="M 163 336 L 444 336" stroke-miterlimit="10" />
        </g>
        <g transform="translate(-70,2) scale(1,1)">
            <path fill="#000000" stroke="none"
                d="M 433.83732514237585 340.209517756016 L 444 336 L 433.83732514237585 331.790482243984" />
        </g>
        <g transform="translate(-70,2) scale(1,1)">
            <path fill="none" stroke="#000000"
                d="M 433.83732514237585 340.209517756016 L 444 336 L 433.83732514237585 331.790482243984 L 433.83732514237585 340.209517756016"
                stroke-miterlimit="10" />
        </g>
        <g transform="translate(-70,2) scale(1,1)">
            <g>
                <path fill="none" stroke="none" />
                <text fill="#000000" stroke="none" font-family="Arial" font-size="13px"
                    font-style="normal" font-weight="normal" text-decoration="none" x="175.5"
                    y="348">11 : Sends the request to create new chat</text>
            </g>
        </g>
        <g transform="translate(-70,2) scale(1,1)">
            <rect fill="#ffffff" stroke="none" x="444" y="336" width="13" height="40" />
        </g>
        <g transform="translate(-70,2) scale(1,1)">
            <path fill="none" stroke="#000000"
                d="M 444 336 L 457 336 L 457 376 L 444 376 L 444 336 Z Z" stroke-miterlimit="10" />
        </g>
        <g transform="translate(-70,2) scale(1,1)">
            <path fill="none" stroke="#000000" d="M 457 344 L 876 344" stroke-miterlimit="10" />
        </g>
        <g transform="translate(-70,2) scale(1,1)">
            <path fill="#000000" stroke="none"
                d="M 865.8373251423759 348.209517756016 L 876 344 L 865.8373251423758 339.790482243984" />
        </g>
        <g transform="translate(-70,2) scale(1,1)">
            <path fill="none" stroke="#000000"
                d="M 865.8373251423759 348.209517756016 L 876 344 L 865.8373251423758 339.790482243984 L 865.8373251423759 348.209517756016"
                stroke-miterlimit="10" />
        </g>
        <g transform="translate(-70,2) scale(1,1)">
            <g>
                <path fill="none" stroke="none" />
                <text fill="#000000" stroke="none" font-family="Arial" font-size="13px"
                    font-style="normal" font-weight="normal" text-decoration="none" x="580.5"
                    y="339">12 : Creates a new chat room</text>
            </g>
        </g>
        <g transform="translate(-70,2) scale(1,1)">
            <rect fill="#ffffff" stroke="none" x="876" y="344" width="13" height="28" />
        </g>
        <g transform="translate(-70,2) scale(1,1)">
            <path fill="none" stroke="#000000"
                d="M 876 344 L 889 344 L 889 372 L 876 372 L 876 344 Z Z" stroke-miterlimit="10" />
        </g>
        <g transform="translate(-70,2) scale(1,1)">
            <path fill="none" stroke="#000000" d="M 876 360 L 457 360" stroke-miterlimit="10"
                stroke-dasharray="3" />
        </g>
        <g transform="translate(-70,2) scale(1,1)">
            <path fill="none" stroke="#000000"
                d="M 467.16267485762415 355.790482243984 L 457 360 L 467.16267485762415 364.209517756016"
                stroke-miterlimit="10" />
        </g>
        <g transform="translate(-70,2) scale(1,1)">
            <g>
                <path fill="none" stroke="none" />
                <text fill="#000000" stroke="none" font-family="Arial" font-size="13px"
                    font-style="normal" font-weight="normal" text-decoration="none" x="574.5"
                    y="375">13 : Responds new chat details</text>
            </g>
        </g>
        <g transform="translate(-70,2) scale(1,1)">
            <path fill="none" stroke="#000000" d="M 444 368 L 163 368" stroke-miterlimit="10"
                stroke-dasharray="3" />
        </g>
        <g transform="translate(-70,2) scale(1,1)">
            <path fill="none" stroke="#000000"
                d="M 173.16267485762415 363.790482243984 L 163 368 L 173.16267485762415 372.209517756016"
                stroke-miterlimit="10" />
        </g>
        <g transform="translate(-70,2) scale(1,1)">
            <g>
                <path fill="none" stroke="none" />
                <text fill="#000000" stroke="none" font-family="Arial" font-size="13px"
                    font-style="normal" font-weight="normal" text-decoration="none" x="216.5"
                    y="383">14 : Joins the user to the chat</text>
            </g>
        </g>
        <g transform="translate(-70,2) scale(1,1)">
            <path fill="none" stroke="#000000" d="M 163 407 L 300 407" stroke-miterlimit="10" />
        </g>
        <g transform="translate(-70,2) scale(1,1)">
            <path fill="#000000" stroke="none"
                d="M 289.83732514237585 411.209517756016 L 300 407 L 289.83732514237585 402.790482243984" />
        </g>
        <g transform="translate(-70,2) scale(1,1)">
            <path fill="none" stroke="#000000"
                d="M 289.83732514237585 411.209517756016 L 300 407 L 289.83732514237585 402.790482243984 L 289.83732514237585 411.209517756016"
                stroke-miterlimit="10" />
        </g>
        <g transform="translate(-70,2) scale(1,1)">
            <g>
                <path fill="none" stroke="none" />
                <text fill="#000000" stroke="none" font-family="Arial" font-size="13px"
                    font-style="normal" font-weight="normal" text-decoration="none" x="86.5" y="427">15
                    : A text, file, image, emoji is send</text>
            </g>
        </g>
        <g transform="translate(-70,2) scale(1,1)">
            <rect fill="#ffffff" stroke="none" x="300" y="407" width="13" height="169" />
        </g>
        <g transform="translate(-70,2) scale(1,1)">
            <path fill="none" stroke="#000000"
                d="M 300 407 L 313 407 L 313 576 L 300 576 L 300 407 Z Z" stroke-miterlimit="10" />
        </g>
        <g transform="translate(-70,2) scale(1,1)">
            <path fill="none" stroke="#000000" d="M 313 424 L 444 424" stroke-miterlimit="10" />
        </g>
        <g transform="translate(-70,2) scale(1,1)">
            <path fill="none" stroke="#000000"
                d="M 433.83732514237585 428.209517756016 L 444 424 L 433.83732514237585 419.790482243984"
                stroke-miterlimit="10" />
        </g>
        <g transform="translate(-70,2) scale(1,1)">
            <g>
                <path fill="none" stroke="none" />
                <text fill="#000000" stroke="none" font-family="Arial" font-size="13px"
                    font-style="normal" font-weight="normal" text-decoration="none"
                    x="212.156982421875" y="451">16 : Process data and sends data</text>
            </g>
        </g>
        <g transform="translate(-70,2) scale(1,1)">
            <rect fill="#ffffff" stroke="none" x="444" y="424" width="13" height="136" />
        </g>
        <g transform="translate(-70,2) scale(1,1)">
            <path fill="none" stroke="#000000"
                d="M 444 424 L 457 424 L 457 560 L 444 560 L 444 424 Z Z" stroke-miterlimit="10" />
        </g>
        <g transform="translate(-70,2) scale(1,1)">
            <path fill="none" stroke="#000000" d="M 457 427 L 876 427" stroke-miterlimit="10" />
        </g>
        <g transform="translate(-70,2) scale(1,1)">
            <path fill="#000000" stroke="none"
                d="M 865.8373251423759 431.209517756016 L 876 427 L 865.8373251423758 422.790482243984" />
        </g>
        <g transform="translate(-70,2) scale(1,1)">
            <path fill="none" stroke="#000000"
                d="M 865.8373251423759 431.209517756016 L 876 427 L 865.8373251423758 422.790482243984 L 865.8373251423759 431.209517756016"
                stroke-miterlimit="10" />
        </g>
        <g transform="translate(-70,2) scale(1,1)">
            <g>
                <path fill="none" stroke="none" />
                <text fill="#000000" stroke="none" font-family="Arial" font-size="13px"
                    font-style="normal" font-weight="normal" text-decoration="none" x="553.5"
                    y="422">17 : data is added to the specific tables</text>
            </g>
        </g>
        <g transform="translate(-70,2) scale(1,1)">
            <rect fill="#ffffff" stroke="none" x="876" y="427" width="13" height="28" />
        </g>
        <g transform="translate(-70,2) scale(1,1)">
            <path fill="none" stroke="#000000"
                d="M 876 427 L 889 427 L 889 455 L 876 455 L 876 427 Z Z" stroke-miterlimit="10" />
        </g>
        <g transform="translate(-70,2) scale(1,1)">
            <path fill="none" stroke="#000000" d="M 876 440 L 457 440" stroke-miterlimit="10"
                stroke-dasharray="3" />
        </g>
        <g transform="translate(-70,2) scale(1,1)">
            <path fill="none" stroke="#000000"
                d="M 467.16267485762415 435.790482243984 L 457 440 L 467.16267485762415 444.209517756016"
                stroke-miterlimit="10" />
        </g>
        <g transform="translate(-70,2) scale(1,1)">
            <g>
                <path fill="none" stroke="none" />
                <text fill="#000000" stroke="none" font-family="Arial" font-size="13px"
                    font-style="normal" font-weight="normal" text-decoration="none" x="579.5"
                    y="455">18 : Sends acknowledgement</text>
            </g>
        </g>
        <g transform="translate(-70,2) scale(1,1)">
            <path fill="none" stroke="#000000" d="M 457 496 L 588 496" stroke-miterlimit="10" />
        </g>
        <g transform="translate(-70,2) scale(1,1)">
            <path fill="none" stroke="#000000"
                d="M 577.8373251423759 500.209517756016 L 588 496 L 577.8373251423758 491.790482243984"
                stroke-miterlimit="10" />
        </g>
        <g transform="translate(-70,2) scale(1,1)">
            <g>
                <path fill="none" stroke="none" />
                <text fill="#000000" stroke="none" font-family="Arial" font-size="13px"
                    font-style="normal" font-weight="normal" text-decoration="none" x="162.5"
                    y="482">19 : Data is then relayed to the specific user the sender wants to send</text>
            </g>
        </g>
        <g transform="translate(-70,2) scale(1,1)">
            <rect fill="#ffffff" stroke="none" x="588" y="496" width="13" height="40" />
        </g>
        <g transform="translate(-70,2) scale(1,1)">
            <path fill="none" stroke="#000000"
                d="M 588 496 L 601 496 L 601 536 L 588 536 L 588 496 Z Z" stroke-miterlimit="10" />
        </g>
        <g transform="translate(-70,2) scale(1,1)">
            <path fill="none" stroke="#000000" d="M 601 504 L 732 504" stroke-miterlimit="10" />
        </g>
        <g transform="translate(-70,2) scale(1,1)">
            <path fill="none" stroke="#000000"
                d="M 721.8373251423759 508.209517756016 L 732 504 L 721.8373251423758 499.790482243984"
                stroke-miterlimit="10" />
        </g>
        <g transform="translate(-70,2) scale(1,1)">
            <g>
                <path fill="none" stroke="none" />
                <text fill="#000000" stroke="none" font-family="Arial" font-size="13px"
                    font-style="normal" font-weight="normal" text-decoration="none" x="606.5"
                    y="491">20 : Sends the message to receiver and displays it</text>
            </g>
        </g>
        <g transform="translate(-70,2) scale(1,1)">
            <rect fill="#ffffff" stroke="none" x="732" y="504" width="13" height="28" />
        </g>
        <g transform="translate(-70,2) scale(1,1)">
            <path fill="none" stroke="#000000"
                d="M 732 504 L 745 504 L 745 532 L 732 532 L 732 504 Z Z" stroke-miterlimit="10" />
        </g>
        <g transform="translate(-70,2) scale(1,1)">
            <path fill="none" stroke="#000000" d="M 732 520 L 601 520" stroke-miterlimit="10"
                stroke-dasharray="3" />
        </g>
        <g transform="translate(-70,2) scale(1,1)">
            <path fill="none" stroke="#000000"
                d="M 611.1626748576241 515.790482243984 L 601 520 L 611.1626748576241 524.209517756016"
                stroke-miterlimit="10" />
        </g>
        <g transform="translate(-70,2) scale(1,1)">
            <g>
                <path fill="none" stroke="none" />
                <text fill="#000000" stroke="none" font-family="Arial" font-size="13px"
                    font-style="normal" font-weight="normal" text-decoration="none" x="619.5"
                    y="535">21 : Sends data</text>
            </g>
        </g>
        <g transform="translate(-70,2) scale(1,1)">
            <path fill="none" stroke="#000000" d="M 588 528 L 457 528" stroke-miterlimit="10"
                stroke-dasharray="3" />
        </g>
        <g transform="translate(-70,2) scale(1,1)">
            <path fill="none" stroke="#000000"
                d="M 467.16267485762415 523.790482243984 L 457 528 L 467.16267485762415 532.209517756016"
                stroke-miterlimit="10" />
        </g>
        <g transform="translate(-70,2) scale(1,1)">
            <g>
                <path fill="none" stroke="none" />
                <text fill="#000000" stroke="none" font-family="Arial" font-size="13px"
                    font-style="normal" font-weight="normal" text-decoration="none" x="465.5"
                    y="554">22 : Replays to the server</text>
            </g>
        </g>
        <g transform="translate(-70,2) scale(1,1)">
            <path fill="none" stroke="#000000" d="M 444 544 L 313 544" stroke-miterlimit="10"
                stroke-dasharray="3" />
        </g>
        <g transform="translate(-70,2) scale(1,1)">
            <path fill="none" stroke="#000000"
                d="M 323.16267485762415 539.790482243984 L 313 544 L 323.16267485762415 548.209517756016"
                stroke-miterlimit="10" />
        </g>
        <g transform="translate(-70,2) scale(1,1)">
            <g>
                <path fill="none" stroke="none" />
                <text fill="#000000" stroke="none" font-family="Arial" font-size="13px"
                    font-style="normal" font-weight="normal" text-decoration="none" x="318.5"
                    y="576">23 : Processes &amp; sends to specified user</text>
            </g>
        </g>
        <g transform="translate(-70,2) scale(1,1)">
            <path fill="none" stroke="#000000" d="M 300 552 L 163 552" stroke-miterlimit="10"
                stroke-dasharray="3" />
        </g>
        <g transform="translate(-70,2) scale(1,1)">
            <path fill="none" stroke="#000000"
                d="M 173.16267485762415 547.790482243984 L 163 552 L 173.16267485762415 556.209517756016"
                stroke-miterlimit="10" />
        </g>
        <g transform="translate(-70,2) scale(1,1)">
            <g>
                <path fill="none" stroke="none" />
                <text fill="#000000" stroke="none" font-family="Arial" font-size="13px"
                    font-style="normal" font-weight="normal" text-decoration="none" x="87.5" y="595">24
                    : Displays data of reading and receiving</text>
            </g>
        </g>
    </g>
</svg>