<svg version="1.1" xmlns="http://www.w3.org/2000/svg" xmlns:xlink="http://www.w3.org/1999/xlink"
    width="784.0732421875" height="412">
    <defs />
    <g>
        <g transform="translate(-422,-326) scale(1,1)">
            <rect fill="#C0C0C0" stroke="none" x="535" y="343" width="456" height="392"
                opacity="0.2" />
        </g>
        <g transform="translate(-422,-326) scale(1,1)">
            <rect fill="#ffffff" stroke="none" x="528" y="336" width="456" height="392" />
        </g>
        <g transform="translate(-422,-326) scale(1,1)">
            <path fill="none" stroke="#000000"
                d="M 528 336 L 984 336 L 984 728 L 528 728 L 528 336 Z Z" stroke-miterlimit="10" />
        </g>
        <g transform="translate(-422,-326) scale(1,1)">
            <g>
                <path fill="none" stroke="none" />
                <text fill="#000000" stroke="none" font-family="Arial" font-size="13px"
                    font-style="normal" font-weight="bold" text-decoration="none"
                    x="741.555908203125" y="354">Chat</text>
            </g>
        </g>
        <g transform="translate(-422,-326) scale(1,1)">
            <path fill="#ffffff" stroke="none"
                d="M 448.77434055397725 521.6800000000001 C 448.77434055397725 516.8861679360001 452.66018287892274 513 457.45361328125 513 C 462.24704368357726 513 466.13288600852275 516.8861679360001 466.13288600852275 521.6800000000001 C 466.13288600852275 526.473832064 462.24704368357726 530.36 457.45361328125 530.36 C 452.66018287892274 530.36 448.77434055397725 526.473832064 448.77434055397725 521.6800000000001 Z" />
        </g>
        <g transform="translate(-422,-326) scale(1,1)">
            <path fill="none" stroke="#000000"
                d="M 448.77434055397725 521.6800000000001 C 448.77434055397725 516.8861679360001 452.66018287892274 513 457.45361328125 513 C 462.24704368357726 513 466.13288600852275 516.8861679360001 466.13288600852275 521.6800000000001 C 466.13288600852275 526.473832064 462.24704368357726 530.36 457.45361328125 530.36 C 452.66018287892274 530.36 448.77434055397725 526.473832064 448.77434055397725 521.6800000000001 Z"
                stroke-miterlimit="10" />
        </g>
        <g transform="translate(-422,-326) scale(1,1)">
            <path fill="none" stroke="#000000" d="M 457.45361328125 530.36 L 457.45361328125 547.64"
                stroke-miterlimit="10" />
        </g>
        <g transform="translate(-422,-326) scale(1,1)">
            <path fill="none" stroke="#000000"
                d="M 448.26379509943183 536.84 L 466.64343146306817 536.84" stroke-miterlimit="10" />
        </g>
        <g transform="translate(-422,-326) scale(1,1)">
            <path fill="none" stroke="#000000" d="M 457.45361328125 547.64 L 444.68997691761365 565"
                stroke-miterlimit="10" />
        </g>
        <g transform="translate(-422,-326) scale(1,1)">
            <path fill="none" stroke="#000000" d="M 457.45361328125 547.64 L 470.21724964488635 565"
                stroke-miterlimit="10" />
        </g>
        <g transform="translate(-422,-326) scale(1,1)">
            <g>
                <path fill="none" stroke="none" />
                <text fill="#000000" stroke="none" font-family="Arial" font-size="13px"
                    font-style="normal" font-weight="bold" text-decoration="none" x="436.5" y="584">User
                    A</text>
            </g>
        </g>
        <g transform="translate(-422,-326) scale(1,1)">
            <path fill="#C0C0C0" stroke="none"
                d="M 567 376 C 567 366.6111584 589.6096176 359 617.5 359 C 645.3903824 359 668 366.6111584 668 376 C 668 385.3888416 645.3903824 393 617.5 393 C 589.6096176 393 567 385.3888416 567 376 Z"
                opacity="0.2" />
        </g>
        <g transform="translate(-422,-326) scale(1,1)">
            <path fill="#ffffff" stroke="none"
                d="M 560 369 C 560 359.6111584 582.6096176 352 610.5 352 C 638.3903824 352 661 359.6111584 661 369 C 661 378.3888416 638.3903824 386 610.5 386 C 582.6096176 386 560 378.3888416 560 369 Z" />
        </g>
        <g transform="translate(-422,-326) scale(1,1)">
            <path fill="none" stroke="#000000"
                d="M 560 369 C 560 359.6111584 582.6096176 352 610.5 352 C 638.3903824 352 661 359.6111584 661 369 C 661 378.3888416 638.3903824 386 610.5 386 C 582.6096176 386 560 378.3888416 560 369 Z"
                stroke-miterlimit="10" />
        </g>
        <g transform="translate(-422,-326) scale(1,1)">
            <g>
                <path fill="none" stroke="none" />
                <text fill="#000000" stroke="none" font-family="Arial" font-size="13px"
                    font-style="normal" font-weight="bold" text-decoration="none"
                    x="590.273193359375" y="374.5">Profile</text>
            </g>
        </g>
        <g transform="translate(-422,-326) scale(1,1)">
            <path fill="#C0C0C0" stroke="none"
                d="M 775 600 C 775 590.6111584 808.8024976 583 850.5 583 C 892.1975024 583 926 590.6111584 926 600 C 926 609.3888416 892.1975024 617 850.5 617 C 808.8024976 617 775 609.3888416 775 600 Z"
                opacity="0.2" />
        </g>
        <g transform="translate(-422,-326) scale(1,1)">
            <path fill="#ffffff" stroke="none"
                d="M 768 593 C 768 583.6111584 801.8024976 576 843.5 576 C 885.1975024 576 919 583.6111584 919 593 C 919 602.3888416 885.1975024 610 843.5 610 C 801.8024976 610 768 602.3888416 768 593 Z" />
        </g>
        <g transform="translate(-422,-326) scale(1,1)">
            <path fill="none" stroke="#000000"
                d="M 768 593 C 768 583.6111584 801.8024976 576 843.5 576 C 885.1975024 576 919 583.6111584 919 593 C 919 602.3888416 885.1975024 610 843.5 610 C 801.8024976 610 768 602.3888416 768 593 Z"
                stroke-miterlimit="10" />
        </g>
        <g transform="translate(-422,-326) scale(1,1)">
            <g>
                <path fill="none" stroke="none" />
                <text fill="#000000" stroke="none" font-family="Arial" font-size="13px"
                    font-style="normal" font-weight="bold" text-decoration="none"
                    x="794.727783203125" y="598.5">Send Messages</text>
            </g>
        </g>
        <g transform="translate(-422,-326) scale(1,1)">
            <path fill="#C0C0C0" stroke="none"
                d="M 623 688 C 623 678.6111584 662.17508 671 710.5 671 C 758.82492 671 798 678.6111584 798 688 C 798 697.3888416 758.82492 705 710.5 705 C 662.17508 705 623 697.3888416 623 688 Z"
                opacity="0.2" />
        </g>
        <g transform="translate(-422,-326) scale(1,1)">
            <path fill="#ffffff" stroke="none"
                d="M 616 681 C 616 671.6111584 655.17508 664 703.5 664 C 751.82492 664 791 671.6111584 791 681 C 791 690.3888416 751.82492 698 703.5 698 C 655.17508 698 616 690.3888416 616 681 Z" />
        </g>
        <g transform="translate(-422,-326) scale(1,1)">
            <path fill="none" stroke="#000000"
                d="M 616 681 C 616 671.6111584 655.17508 664 703.5 664 C 751.82492 664 791 671.6111584 791 681 C 791 690.3888416 751.82492 698 703.5 698 C 655.17508 698 616 690.3888416 616 681 Z"
                stroke-miterlimit="10" />
        </g>
        <g transform="translate(-422,-326) scale(1,1)">
            <g>
                <path fill="none" stroke="none" />
                <text fill="#000000" stroke="none" font-family="Arial" font-size="13px"
                    font-style="normal" font-weight="bold" text-decoration="none"
                    x="646.044189453125" y="686.5">Receive Messages</text>
            </g>
        </g>
        <g transform="translate(-422,-326) scale(1,1)">
            <path fill="none" stroke="#000000" d="M 669 663 L 484 565" stroke-miterlimit="10" />
        </g>
        <g transform="translate(-422,-326) scale(1,1)">
            <path fill="none" stroke="#000000"
                d="M 494.9509736330511 566.0373892655219 L 484 565 L 491.0099627321448 573.4770527009061"
                stroke-miterlimit="10" />
        </g>
        <g transform="translate(-422,-326) scale(1,1)">
            <path fill="#C0C0C0" stroke="none"
                d="M 671 400 C 671 390.6111584 693.6096176 383 721.5 383 C 749.3903824 383 772 390.6111584 772 400 C 772 409.3888416 749.3903824 417 721.5 417 C 693.6096176 417 671 409.3888416 671 400 Z"
                opacity="0.2" />
        </g>
        <g transform="translate(-422,-326) scale(1,1)">
            <path fill="#ffffff" stroke="none"
                d="M 664 393 C 664 383.6111584 686.6096176 376 714.5 376 C 742.3903824 376 765 383.6111584 765 393 C 765 402.3888416 742.3903824 410 714.5 410 C 686.6096176 410 664 402.3888416 664 393 Z" />
        </g>
        <g transform="translate(-422,-326) scale(1,1)">
            <path fill="none" stroke="#000000"
                d="M 664 393 C 664 383.6111584 686.6096176 376 714.5 376 C 742.3903824 376 765 383.6111584 765 393 C 765 402.3888416 742.3903824 410 714.5 410 C 686.6096176 410 664 402.3888416 664 393 Z"
                stroke-miterlimit="10" />
        </g>
        <g transform="translate(-422,-326) scale(1,1)">
            <g>
                <path fill="none" stroke="none" />
                <text fill="#000000" stroke="none" font-family="Arial" font-size="13px"
                    font-style="normal" font-weight="bold" text-decoration="none"
                    x="696.812255859375" y="398.5">Login</text>
            </g>
        </g>
        <g transform="translate(-422,-326) scale(1,1)">
            <path fill="#C0C0C0" stroke="none"
                d="M 767 432 C 767 422.6111584 789.6096176 415 817.5 415 C 845.3903824 415 868 422.6111584 868 432 C 868 441.3888416 845.3903824 449 817.5 449 C 789.6096176 449 767 441.3888416 767 432 Z"
                opacity="0.2" />
        </g>
        <g transform="translate(-422,-326) scale(1,1)">
            <path fill="#ffffff" stroke="none"
                d="M 760 425 C 760 415.6111584 782.6096176 408 810.5 408 C 838.3903824 408 861 415.6111584 861 425 C 861 434.3888416 838.3903824 442 810.5 442 C 782.6096176 442 760 434.3888416 760 425 Z" />
        </g>
        <g transform="translate(-422,-326) scale(1,1)">
            <path fill="none" stroke="#000000"
                d="M 760 425 C 760 415.6111584 782.6096176 408 810.5 408 C 838.3903824 408 861 415.6111584 861 425 C 861 434.3888416 838.3903824 442 810.5 442 C 782.6096176 442 760 434.3888416 760 425 Z"
                stroke-miterlimit="10" />
        </g>
        <g transform="translate(-422,-326) scale(1,1)">
            <g>
                <path fill="none" stroke="none" />
                <text fill="#000000" stroke="none" font-family="Arial" font-size="13px"
                    font-style="normal" font-weight="bold" text-decoration="none"
                    x="788.483154296875" y="430.5">Logout</text>
            </g>
        </g>
        <g transform="translate(-422,-326) scale(1,1)">
            <path fill="none" stroke="#000000" d="M 484 537 Q 640 456 693 411"
                stroke-miterlimit="10" />
        </g>
        <g transform="translate(-422,-326) scale(1,1)">
            <path fill="none" stroke="#000000"
                d="M 687.9775827646936 420.7864868627356 L 693 411 L 682.5285234903332 414.3687059396001"
                stroke-miterlimit="10" />
        </g>
        <g transform="translate(-422,-326) scale(1,1)">
            <path fill="none" stroke="#000000" d="M 484 541 Q 744 440 759 437"
                stroke-miterlimit="10" />
        </g>
        <g transform="translate(-422,-326) scale(1,1)">
            <path fill="none" stroke="#000000"
                d="M 749.8602317743891 443.12083628127033 L 759 437 L 748.2091230681783 434.86529275021616"
                stroke-miterlimit="10" />
        </g>
        <g transform="translate(-422,-326) scale(1,1)">
            <path fill="none" stroke="#000000" d="M 484 535 Q 592 472 607 387"
                stroke-miterlimit="10" />
        </g>
        <g transform="translate(-422,-326) scale(1,1)">
            <path fill="none" stroke="#000000"
                d="M 609.3793400331355 397.739587562226 L 607 387 L 601.088412279782 396.2764826645754"
                stroke-miterlimit="10" />
        </g>
        <g transform="translate(-422,-326) scale(1,1)">
            <path fill="#C0C0C0" stroke="none"
                d="M 775 520 C 775 510.6111584 790.4461744 503 809.5 503 C 828.5538256 503 844 510.6111584 844 520 C 844 529.3888416 828.5538256 537 809.5 537 C 790.4461744 537 775 529.3888416 775 520 Z"
                opacity="0.2" />
        </g>
        <g transform="translate(-422,-326) scale(1,1)">
            <path fill="#ffffff" stroke="none"
                d="M 768 513 C 768 503.6111584 783.4461744 496 802.5 496 C 821.5538256 496 837 503.6111584 837 513 C 837 522.3888416 821.5538256 530 802.5 530 C 783.4461744 530 768 522.3888416 768 513 Z" />
        </g>
        <g transform="translate(-422,-326) scale(1,1)">
            <path fill="none" stroke="#000000"
                d="M 768 513 C 768 503.6111584 783.4461744 496 802.5 496 C 821.5538256 496 837 503.6111584 837 513 C 837 522.3888416 821.5538256 530 802.5 530 C 783.4461744 530 768 522.3888416 768 513 Z"
                stroke-miterlimit="10" />
        </g>
        <g transform="translate(-422,-326) scale(1,1)">
            <g>
                <path fill="none" stroke="none" />
                <text fill="#000000" stroke="none" font-family="Arial" font-size="13px"
                    font-style="normal" font-weight="bold" text-decoration="none"
                    x="783.714111328125" y="518.5">Image</text>
            </g>
        </g>
        <g transform="translate(-422,-326) scale(1,1)">
            <path fill="#C0C0C0" stroke="none"
                d="M 887 520 C 887 510.6111584 902.4461744 503 921.5 503 C 940.5538256 503 956 510.6111584 956 520 C 956 529.3888416 940.5538256 537 921.5 537 C 902.4461744 537 887 529.3888416 887 520 Z"
                opacity="0.2" />
        </g>
        <g transform="translate(-422,-326) scale(1,1)">
            <path fill="#ffffff" stroke="none"
                d="M 880 513 C 880 503.6111584 895.4461744 496 914.5 496 C 933.5538256 496 949 503.6111584 949 513 C 949 522.3888416 933.5538256 530 914.5 530 C 895.4461744 530 880 522.3888416 880 513 Z" />
        </g>
        <g transform="translate(-422,-326) scale(1,1)">
            <path fill="none" stroke="#000000"
                d="M 880 513 C 880 503.6111584 895.4461744 496 914.5 496 C 933.5538256 496 949 503.6111584 949 513 C 949 522.3888416 933.5538256 530 914.5 530 C 895.4461744 530 880 522.3888416 880 513 Z"
                stroke-miterlimit="10" />
        </g>
        <g transform="translate(-422,-326) scale(1,1)">
            <g>
                <path fill="none" stroke="none" />
                <text fill="#000000" stroke="none" font-family="Arial" font-size="13px"
                    font-style="normal" font-weight="bold" text-decoration="none"
                    x="901.617431640625" y="518.5">Text</text>
            </g>
        </g>
        <g transform="translate(-422,-326) scale(1,1)">
            <path fill="none" stroke="#000000" d="M 811 531 L 834 575" stroke-miterlimit="10"
                stroke-dasharray="3" />
        </g>
        <g transform="translate(-422,-326) scale(1,1)">
            <path fill="none" stroke="#000000"
                d="M 825.5615163518238 567.9436557822436 L 834 575 L 833.0226798362048 564.0435021426808"
                stroke-miterlimit="10" />
        </g>
        <g transform="translate(-422,-326) scale(1,1)">
            <g>
                <path fill="none" stroke="none" />
                <text fill="#000000" stroke="none" font-family="Arial" font-size="13px"
                    font-style="normal" font-weight="normal" text-decoration="none" x="823.5"
                    y="539">«include»</text>
            </g>
        </g>
        <g transform="translate(-422,-326) scale(1,1)">
            <path fill="none" stroke="#000000" d="M 898 531 L 859 575" stroke-miterlimit="10"
                stroke-dasharray="3" />
        </g>
        <g transform="translate(-422,-326) scale(1,1)">
            <path fill="none" stroke="#000000"
                d="M 862.5907988702699 564.6025886167148 L 859 575 L 868.891158326952 570.1869981351376"
                stroke-miterlimit="10" />
        </g>
        <g transform="translate(-422,-326) scale(1,1)">
            <g>
                <path fill="none" stroke="none" />
                <text fill="#000000" stroke="none" font-family="Arial" font-size="13px"
                    font-style="normal" font-weight="normal" text-decoration="none" x="881.5"
                    y="563">«include»</text>
            </g>
        </g>
        <g transform="translate(-422,-326) scale(1,1)">
            <path fill="#ffffff" stroke="none"
                d="M 1080.4093503196023 593.6800000000001 C 1080.4093503196023 588.8861679360001 1084.2951926445478 585 1089.088623046875 585 C 1093.8820534492022 585 1097.7678957741477 588.8861679360001 1097.7678957741477 593.6800000000001 C 1097.7678957741477 598.473832064 1093.8820534492022 602.36 1089.088623046875 602.36 C 1084.2951926445478 602.36 1080.4093503196023 598.473832064 1080.4093503196023 593.6800000000001 Z" />
        </g>
        <g transform="translate(-422,-326) scale(1,1)">
            <path fill="none" stroke="#000000"
                d="M 1080.4093503196023 593.6800000000001 C 1080.4093503196023 588.8861679360001 1084.2951926445478 585 1089.088623046875 585 C 1093.8820534492022 585 1097.7678957741477 588.8861679360001 1097.7678957741477 593.6800000000001 C 1097.7678957741477 598.473832064 1093.8820534492022 602.36 1089.088623046875 602.36 C 1084.2951926445478 602.36 1080.4093503196023 598.473832064 1080.4093503196023 593.6800000000001 Z"
                stroke-miterlimit="10" />
        </g>
        <g transform="translate(-422,-326) scale(1,1)">
            <path fill="none" stroke="#000000"
                d="M 1089.088623046875 602.36 L 1089.088623046875 619.64" stroke-miterlimit="10" />
        </g>
        <g transform="translate(-422,-326) scale(1,1)">
            <path fill="none" stroke="#000000"
                d="M 1079.8988048650567 608.84 L 1098.2784412286933 608.84" stroke-miterlimit="10" />
        </g>
        <g transform="translate(-422,-326) scale(1,1)">
            <path fill="none" stroke="#000000"
                d="M 1089.088623046875 619.64 L 1076.3249866832386 637" stroke-miterlimit="10" />
        </g>
        <g transform="translate(-422,-326) scale(1,1)">
            <path fill="none" stroke="#000000"
                d="M 1089.088623046875 619.64 L 1101.8522594105114 637" stroke-miterlimit="10" />
        </g>
        <g transform="translate(-422,-326) scale(1,1)">
            <g>
                <path fill="none" stroke="none" />
                <text fill="#000000" stroke="none" font-family="Arial" font-size="13px"
                    font-style="normal" font-weight="bold" text-decoration="none"
                    x="1068.84912109375" y="656">Server</text>
            </g>
        </g>
        <g transform="translate(-422,-326) scale(1,1)">
            <path fill="none" stroke="#000000" d="M 920 596 Q 1000 600 1063 616"
                stroke-miterlimit="10" />
        </g>
        <g transform="translate(-422,-326) scale(1,1)">
            <path fill="none" stroke="#000000"
                d="M 1052.1138338442065 617.5784126293388 L 1063 616 L 1054.186211816399 609.4184243638309"
                stroke-miterlimit="10" />
        </g>
        <g transform="translate(-422,-326) scale(1,1)">
            <g>
                <path fill="none" stroke="none" />
                <text fill="#000000" stroke="none" font-family="Arial" font-size="13px"
                    font-style="normal" font-weight="normal" text-decoration="none" x="976.5"
                    y="535">+Send to the specified user and group</text>
            </g>
        </g>
        <g transform="translate(-422,-326) scale(1,1)">
            <path fill="none" stroke="#000000" d="M 1063 662 Q 1024 720 792 692"
                stroke-miterlimit="10" />
        </g>
        <g transform="translate(-422,-326) scale(1,1)">
            <path fill="none" stroke="#000000"
                d="M 802.593844106948 689.0385025683479 L 792 692 L 801.5850739232438 697.3968840904683"
                stroke-miterlimit="10" />
        </g>
        <g transform="translate(-422,-326) scale(1,1)">
            <g>
                <path fill="none" stroke="none" />
                <text fill="#000000" stroke="none" font-family="Arial" font-size="13px"
                    font-style="normal" font-weight="normal" text-decoration="none" x="806.5"
                    y="722">+Messages send to the user</text>
            </g>
        </g>
        <g transform="translate(-422,-326) scale(1,1)">
            <path fill="#C0C0C0" stroke="none"
                d="M 663 640 C 663 630.6111584 695.9070672 623 736.5 623 C 777.0929328 623 810 630.6111584 810 640 C 810 649.3888416 777.0929328 657 736.5 657 C 695.9070672 657 663 649.3888416 663 640 Z"
                opacity="0.2" />
        </g>
        <g transform="translate(-422,-326) scale(1,1)">
            <path fill="#ffffff" stroke="none"
                d="M 656 633 C 656 623.6111584 688.9070672 616 729.5 616 C 770.0929328 616 803 623.6111584 803 633 C 803 642.3888416 770.0929328 650 729.5 650 C 688.9070672 650 656 642.3888416 656 633 Z" />
        </g>
        <g transform="translate(-422,-326) scale(1,1)">
            <path fill="none" stroke="#000000"
                d="M 656 633 C 656 623.6111584 688.9070672 616 729.5 616 C 770.0929328 616 803 623.6111584 803 633 C 803 642.3888416 770.0929328 650 729.5 650 C 688.9070672 650 656 642.3888416 656 633 Z"
                stroke-miterlimit="10" />
        </g>
        <g transform="translate(-422,-326) scale(1,1)">
            <g>
                <path fill="none" stroke="none" />
                <text fill="#000000" stroke="none" font-family="Arial" font-size="13px"
                    font-style="normal" font-weight="bold" text-decoration="none"
                    x="681.92431640625" y="638.5">View Messages</text>
            </g>
        </g>
        <g transform="translate(-422,-326) scale(1,1)">
            <path fill="none" stroke="#000000" d="M 1063 640 Q 1000 680 804 646"
                stroke-miterlimit="10" />
        </g>
        <g transform="translate(-422,-326) scale(1,1)">
            <path fill="none" stroke="#000000"
                d="M 814.7326132844596 643.5893959084408 L 804 646 L 813.2936581331917 651.8845491333966"
                stroke-miterlimit="10" />
        </g>
        <g transform="translate(-422,-326) scale(1,1)">
            <g>
                <path fill="none" stroke="none" />
                <text fill="#000000" stroke="none" font-family="Arial" font-size="13px"
                    font-style="normal" font-weight="normal" text-decoration="none" x="814.5"
                    y="683">+Old &amp; Realtime messages</text>
            </g>
        </g>
        <g transform="translate(-422,-326) scale(1,1)">
            <path fill="none" stroke="#000000" d="M 669 615 L 484 559" stroke-miterlimit="10" />
        </g>
        <g transform="translate(-422,-326) scale(1,1)">
            <path fill="none" stroke="#000000"
                d="M 494.9463941508239 557.9153548530473 L 484 559 L 492.5072294721797 565.973309594997"
                stroke-miterlimit="10" />
        </g>
        <g transform="translate(-422,-326) scale(1,1)">
            <path fill="none" stroke="#000000" d="M 484 554 L 767 585" stroke-miterlimit="10" />
        </g>
        <g transform="translate(-422,-326) scale(1,1)">
            <path fill="none" stroke="#000000"
                d="M 756.4393821811901 588.0778809731754 L 767 585 L 757.3561250189827 579.7089060346174"
                stroke-miterlimit="10" />
        </g>
    </g>
</svg>